<svg xmlns="http://www.w3.org/2000/svg" width="760" height="300" viewBox="0 0 760 300" role="img"><style>
  text{font-family:-apple-system,BlinkMacSystemFont,'Segoe UI',Roboto,Helvetica,Arial,sans-serif}
  .grid{stroke:#d0d7de;stroke-width:1}
  .axis{stroke:#57606a;stroke-width:1}
  .lbl{fill:#57606a;font-size:12px}
  .val{fill:#24292f;font-size:12px;font-weight:600}
  .title{fill:#24292f;font-size:14px;font-weight:700}
  .sub{fill:#57606a;font-size:11px}
  .gap{fill:#57606a;opacity:.09}
  .gaplbl{fill:#57606a;font-size:10px;opacity:.85}
  .ico{fill:#57606a}
  .t1{fill:#d4a72c}
  .t2{fill:#bf8700}
  .t3{fill:#9e6a03}
  .t4{fill:#7d4e00}
  @media (prefers-color-scheme: dark){
    .grid{stroke:#30363d}
    .axis{stroke:#8b949e}
    .lbl{fill:#8b949e}
    .val{fill:#e6edf3}
    .title{fill:#e6edf3}
    .sub{fill:#8b949e}
    .gap{fill:#8b949e;opacity:.13}
    .gaplbl{fill:#8b949e}
    .ico{fill:#8b949e}
    .t1{fill:#bf8700}
    .t2{fill:#d4a72c}
    .t3{fill:#f2cc60}
    .t4{fill:#fbe6a4}
  }
</style><text x="12" y="20" class="title">Achievements unlocked per install</text><text x="12" y="37" class="sub">2,438 installs reporting</text><line x1="46" y1="260" x2="744" y2="260" class="axis"/><line x1="46" y1="152.0" x2="744" y2="152.0" class="grid" stroke-dasharray="3 3"/><text x="40" y="156.0" class="sub" text-anchor="end">769</text><line x1="46" y1="44.0" x2="744" y2="44.0" class="grid" stroke-dasharray="3 3"/><text x="40" y="48.0" class="sub" text-anchor="end">1,538</text><rect x="62.3" y="238.1" width="83.8" height="21.9" rx="2" fill="#3fb950"/><text x="104.2" y="274" class="sub" text-anchor="middle">0</text><rect x="178.6" y="251.6" width="83.8" height="8.4" rx="2" fill="#3fb950"/><text x="220.5" y="274" class="sub" text-anchor="middle">1–4</text><rect x="295.0" y="249.3" width="83.8" height="10.7" rx="2" fill="#3fb950"/><text x="336.8" y="274" class="sub" text-anchor="middle">5–9</text><rect x="411.3" y="178.7" width="83.8" height="81.3" rx="2" fill="#3fb950"/><text x="453.2" y="274" class="sub" text-anchor="middle">10–24</text><rect x="527.6" y="44.0" width="83.8" height="216.0" rx="2" fill="#3fb950"/><text x="569.5" y="274" class="sub" text-anchor="middle">25–49</text><rect x="644.0" y="255.9" width="83.8" height="4.1" rx="2" fill="#3fb950"/><text x="685.8" y="274" class="sub" text-anchor="middle">50+</text></svg>