<svg xmlns="http://www.w3.org/2000/svg" width="760" height="320" viewBox="0 0 760 320" role="img" aria-label="Launches per active install" data-chart='{"bottom":274,"labels":["06-28","06-29","06-30","07-01","07-02","07-03","07-04","07-05","07-06","07-07","07-08","07-09","07-10","07-11","07-12","07-13","07-14","07-15","07-16","07-17","07-18","07-19","07-20","07-21","07-22","07-23","07-24","07-25","07-26","07-27","07-28","07-29","07-30","07-31","08-01","08-02","08-03","08-04","08-05","08-06","08-07","08-08","08-09","08-10","08-11","08-12","08-13","08-14","08-15","08-16","08-17","08-18","08-19","08-20","08-21","08-22","08-23","08-24","08-25","08-26","08-27","08-28","08-29","08-30","08-31","09-01","09-02","09-03","09-04","09-05","09-06","09-07","09-08","09-09","09-10","09-11","09-12","09-13","09-14","09-15","09-16","09-17","09-18","09-19","09-20","09-21","09-22","09-23","09-24","09-25","09-26","09-27","09-28","09-29","09-30","10-01","10-02"],"series":[{"color":"#3fb950","name":"All games","values":["3.2","4.4","4.3","4.5","4.2","4.2","4.3","4.5",null,"4.4","4.1","4.3","4.7","4.2","4.1","4.2","4.0","4.1","4.2","4.1","4.1","4.2","4.2","4.1","3.9","4.1","4.1","4.0",null,null,"4.1","3.8","3.9","4.1","4.0","3.9","4.0","4.0","3.9","4.0","3.9","4.2","4.2","4.2","4.0","3.8","3.5","3.8",null,null,null,null,null,null,null,null,null,null,null,null,"3.8","3.8","4.1","4.1","3.7","3.7","3.8","3.6","3.7","3.9","3.8","3.8","3.6","3.5","3.6","3.7","3.9","4.0","3.5","3.6","3.6","3.5","3.7","4.1","3.9","3.6","3.5","3.5","3.5","3.5","4.0","4.2","3.6","3.5","3.5","3.5","3.5"],"y":[144.1,98.8,101.2,94.2,107.7,104.7,101.4,94.1,null,98.7,109.0,102.0,87.5,107.8,109.7,106.6,113.7,111.6,107.2,109.9,109.5,104.9,106.3,111.5,119.0,111.6,109.5,113.3,null,null,109.2,120.0,117.3,110.7,113.3,118.3,113.3,115.8,117.4,114.5,118.7,106.4,105.3,105.3,114.7,123.7,133.5,123.0,null,null,null,null,null,null,null,null,null,null,null,null,121.2,120.9,109.1,109.9,127.1,128.0,123.6,129.7,127.2,118.4,123.5,121.6,131.9,135.4,131.5,124.7,118.7,113.6,133.3,131.7,128.3,132.0,127.7,111.7,116.4,131.3,135.2,134.7,134.0,132.0,115.8,105.4,128.8,132.2,135.8,134.9,135.0]}],"top":74,"type":"lines","x":[52.0,58.9,65.9,72.8,79.7,86.6,93.6,100.5,107.4,114.3,121.3,128.2,135.1,142.1,149.0,155.9,162.8,169.8,176.7,183.6,190.5,197.5,204.4,211.3,218.2,225.2,232.1,239.0,246.0,252.9,259.8,266.7,273.7,280.6,287.5,294.4,301.4,308.3,315.2,322.2,329.1,336.0,342.9,349.9,356.8,363.7,370.6,377.6,384.5,391.4,398.4,405.3,412.2,419.1,426.1,433.0,439.9,446.8,453.8,460.7,467.6,474.6,481.5,488.4,495.3,502.3,509.2,516.1,523.0,530.0,536.9,543.8,550.8,557.7,564.6,571.5,578.5,585.4,592.3,599.2,606.2,613.1,620.0,626.9,633.9,640.8,647.7,654.7,661.6,668.5,675.4,682.4,689.3,696.2,703.1,710.1,717.0]}'><title>Launches per active install</title><style>
  text{font-family:-apple-system,BlinkMacSystemFont,'Segoe UI',Roboto,Helvetica,Arial,sans-serif}
  .grid{stroke:#808080;stroke-opacity:.3;stroke-width:1}
  .axis{stroke:#808080;stroke-width:1}
  .lbl{fill:#808080;font-size:12px}
  .val{fill:#808080;font-size:12px;font-weight:600}
  .title{fill:#808080;font-size:14px;font-weight:700}
  .sub{fill:#808080;font-size:11px}
  .gap{fill:#808080;opacity:.12}
  .gaplbl{fill:#808080;font-size:10px;opacity:.85}
  .ico{fill:#808080}
  .t1{fill:#e3b341}
  .t2{fill:#d29922}
  .t3{fill:#b7860b}
  .t4{fill:#946f0f}
</style><text x="12" y="20" class="title">Launches per active install</text><text x="12" y="37" class="sub">how many times a typical active install launched that day</text><rect x="104.0" y="74" width="6.9" height="200" class="gap"/><rect x="242.5" y="74" width="13.9" height="200" class="gap"/><rect x="381.0" y="74" width="83.1" height="200" class="gap"/><text x="422.6" y="86" class="gaplbl" text-anchor="middle">no data</text><line x1="52" y1="274.0" x2="717" y2="274.0" class="grid" stroke-dasharray="3 3"/><text x="46" y="278.0" class="sub" text-anchor="end">0</text><line x1="52" y1="234.0" x2="717" y2="234.0" class="grid" stroke-dasharray="3 3"/><text x="46" y="238.0" class="sub" text-anchor="end">1</text><line x1="52" y1="194.0" x2="717" y2="194.0" class="grid" stroke-dasharray="3 3"/><text x="46" y="198.0" class="sub" text-anchor="end">2</text><line x1="52" y1="154.0" x2="717" y2="154.0" class="grid" stroke-dasharray="3 3"/><text x="46" y="158.0" class="sub" text-anchor="end">3</text><line x1="52" y1="114.0" x2="717" y2="114.0" class="grid" stroke-dasharray="3 3"/><text x="46" y="118.0" class="sub" text-anchor="end">4</text><line x1="52" y1="74.0" x2="717" y2="74.0" class="grid" stroke-dasharray="3 3"/><text x="46" y="78.0" class="sub" text-anchor="end">5</text><text x="52.0" y="290" class="sub" text-anchor="middle">06-28</text><text x="135.1" y="290" class="sub" text-anchor="middle">07-10</text><text x="218.2" y="290" class="sub" text-anchor="middle">07-22</text><text x="301.4" y="290" class="sub" text-anchor="middle">08-03</text><text x="384.5" y="290" class="sub" text-anchor="middle">08-15</text><text x="467.6" y="290" class="sub" text-anchor="middle">08-27</text><text x="550.8" y="290" class="sub" text-anchor="middle">09-08</text><text x="633.9" y="290" class="sub" text-anchor="middle">09-20</text><text x="717.0" y="290" class="sub" text-anchor="middle">10-02</text><polyline points="52.0,144.1 58.9,98.8 65.9,101.2 72.8,94.2 79.7,107.7 86.6,104.7 93.6,101.4 100.5,94.1" fill="none" stroke="#3fb950" stroke-width="2" stroke-linejoin="round" stroke-linecap="round"/><polyline points="114.3,98.7 121.3,109.0 128.2,102.0 135.1,87.5 142.1,107.8 149.0,109.7 155.9,106.6 162.8,113.7 169.8,111.6 176.7,107.2 183.6,109.9 190.5,109.5 197.5,104.9 204.4,106.3 211.3,111.5 218.2,119.0 225.2,111.6 232.1,109.5 239.0,113.3" fill="none" stroke="#3fb950" stroke-width="2" stroke-linejoin="round" stroke-linecap="round"/><polyline points="259.8,109.2 266.7,120.0 273.7,117.3 280.6,110.7 287.5,113.3 294.4,118.3 301.4,113.3 308.3,115.8 315.2,117.4 322.2,114.5 329.1,118.7 336.0,106.4 342.9,105.3 349.9,105.3 356.8,114.7 363.7,123.7 370.6,133.5 377.6,123.0" fill="none" stroke="#3fb950" stroke-width="2" stroke-linejoin="round" stroke-linecap="round"/><polyline points="467.6,121.2 474.6,120.9 481.5,109.1 488.4,109.9 495.3,127.1 502.3,128.0 509.2,123.6 516.1,129.7 523.0,127.2 530.0,118.4 536.9,123.5 543.8,121.6 550.8,131.9 557.7,135.4 564.6,131.5 571.5,124.7 578.5,118.7 585.4,113.6 592.3,133.3 599.2,131.7 606.2,128.3 613.1,132.0 620.0,127.7 626.9,111.7 633.9,116.4 640.8,131.3 647.7,135.2 654.7,134.7 661.6,134.0 668.5,132.0 675.4,115.8 682.4,105.4 689.3,128.8 696.2,132.2 703.1,135.8 710.1,134.9 717.0,135.0" fill="none" stroke="#3fb950" stroke-width="2" stroke-linejoin="round" stroke-linecap="round"/><text x="723.0" y="139.0" style="fill:#3fb950;font-size:11px;font-weight:600">3.5</text><circle cx="135.1" cy="87.5" r="3" fill="#3fb950"/><text x="135.1" y="84.0" text-anchor="middle" style="fill:#3fb950;font-size:10px">4.7</text><rect x="52" y="44" width="11" height="11" rx="2" fill="#3fb950"/><text x="68" y="54" class="lbl">All games</text></svg>