<svg xmlns="http://www.w3.org/2000/svg" width="760" height="566" viewBox="0 0 760 566" role="img" aria-label="Features (feat_*)"><title>Features (feat_*)</title><style>
  text{font-family:-apple-system,BlinkMacSystemFont,'Segoe UI',Roboto,Helvetica,Arial,sans-serif}
  .grid{stroke:#808080;stroke-opacity:.3;stroke-width:1}
  .axis{stroke:#808080;stroke-width:1}
  .lbl{fill:#808080;font-size:12px}
  .val{fill:#808080;font-size:12px;font-weight:600}
  .title{fill:#808080;font-size:14px;font-weight:700}
  .sub{fill:#808080;font-size:11px}
  .gap{fill:#808080;opacity:.12}
  .gaplbl{fill:#808080;font-size:10px;opacity:.85}
  .ico{fill:#808080}
  .t1{fill:#e3b341}
  .t2{fill:#d29922}
  .t3{fill:#b7860b}
  .t4{fill:#946f0f}
</style><text x="12" y="20" class="title">Features (feat_*)</text><text x="12" y="37" class="sub">% of MX Bikes installs reporting each flag</text><text x="200" y="60" class="lbl" text-anchor="end">GPU rendering (companion users)</text><rect x="210" y="44" width="369" height="22" rx="3" fill="#3fb950" data-tip="GPU rendering (companion users): 100% (41 of 41)"/><text x="585" y="60" class="val">100% (41 of 41)</text><text x="200" y="90" class="lbl" text-anchor="end">Steam friends</text><rect x="210" y="74" width="363" height="22" rx="3" fill="#58a6ff" data-tip="Steam friends: 99% (14,717 of 14,928)"/><text x="579" y="90" class="val">99% (14,717 of 14,928)</text><text x="200" y="120" class="lbl" text-anchor="end">Widgets (master)</text><rect x="210" y="104" width="362" height="22" rx="3" fill="#d29922" data-tip="Widgets (master): 98% (14,652 of 14,928)"/><text x="578" y="120" class="val">98% (14,652 of 14,928)</text><text x="200" y="150" class="lbl" text-anchor="end">Update checker</text><rect x="210" y="134" width="313" height="22" rx="3" fill="#bc8cff" data-tip="Update checker: 85% (12,669 of 14,928)"/><text x="529" y="150" class="val">85% (12,669 of 14,928)</text><text x="200" y="180" class="lbl" text-anchor="end">Achievement toasts</text><rect x="210" y="164" width="284" height="22" rx="3" fill="#f778ba" data-tip="Achievement toasts: 77% (4,309 of 5,596)"/><text x="500" y="180" class="val">77% (4,309 of 5,596)</text><text x="200" y="210" class="lbl" text-anchor="end">Helmet overlay</text><rect x="210" y="194" width="53" height="22" rx="3" fill="#39c5cf" data-tip="Helmet overlay: 14% (2,164 of 14,928)"/><text x="269" y="210" class="val">14% (2,164 of 14,928)</text><text x="200" y="240" class="lbl" text-anchor="end">Panel theme (any)</text><rect x="210" y="224" width="26" height="22" rx="3" fill="#ff7b72" data-tip="Panel theme (any): 7% (513 of 7,176)"/><text x="242" y="240" class="val">7% (513 of 7,176)</text><text x="200" y="270" class="lbl" text-anchor="end">Discord presence</text><rect x="210" y="254" width="19" height="22" rx="3" fill="#a5d6ff" data-tip="Discord presence: 5% (803 of 14,928)"/><text x="235" y="270" class="val">5% (803 of 14,928)</text><text x="200" y="300" class="lbl" text-anchor="end">Auto-director</text><rect x="210" y="284" width="16" height="22" rx="3" fill="#7ee787" data-tip="Auto-director: 4% (591 of 13,578)"/><text x="232" y="300" class="val">4% (591 of 13,578)</text><text x="200" y="330" class="lbl" text-anchor="end">Controller rumble</text><rect x="210" y="314" width="12" height="22" rx="3" fill="#ffa657" data-tip="Controller rumble: 3% (505 of 14,928)"/><text x="228" y="330" class="val">3% (505 of 14,928)</text><text x="200" y="360" class="lbl" text-anchor="end">Spotter (audio callouts)</text><rect x="210" y="344" width="6" height="22" rx="3" fill="#3fb950" data-tip="Spotter (audio callouts): 2% (132 of 7,176)"/><text x="222" y="360" class="val">2% (132 of 7,176)</text><text x="200" y="390" class="lbl" text-anchor="end">Direct GL (in-game HUD)</text><rect x="210" y="374" width="5" height="22" rx="3" fill="#58a6ff" data-tip="Direct GL (in-game HUD): 1% (91 of 6,154)"/><text x="221" y="390" class="val">1% (91 of 6,154)</text><text x="200" y="420" class="lbl" text-anchor="end">Profile auto-switch</text><rect x="210" y="404" width="5" height="22" rx="3" fill="#d29922" data-tip="Profile auto-switch: 1% (187 of 13,578)"/><text x="221" y="420" class="val">1% (187 of 13,578)</text><text x="200" y="450" class="lbl" text-anchor="end">Companion window</text><rect x="210" y="434" width="2" height="22" rx="3" fill="#bc8cff" data-tip="Companion window: &lt;1% (110 of 13,577)"/><text x="218" y="450" class="val">&lt;1% (110 of 13,577)</text><text x="200" y="480" class="lbl" text-anchor="end">Web overlay (OBS)</text><rect x="210" y="464" width="2" height="22" rx="3" fill="#f778ba" data-tip="Web overlay (OBS): &lt;1% (114 of 14,928)"/><text x="218" y="480" class="val">&lt;1% (114 of 14,928)</text><text x="200" y="510" class="lbl" text-anchor="end">Developer mode</text><rect x="210" y="494" width="1" height="22" rx="3" fill="#39c5cf" data-tip="Developer mode: &lt;1% (13 of 14,928)"/><text x="217" y="510" class="val">&lt;1% (13 of 14,928)</text><text x="200" y="540" class="lbl" text-anchor="end">Worker thread</text><rect x="210" y="524" width="1" height="22" rx="3" fill="#ff7b72" data-tip="Worker thread: &lt;1% (1 of 13,194)"/><text x="217" y="540" class="val">&lt;1% (1 of 13,194)</text></svg>