<svg xmlns="http://www.w3.org/2000/svg" width="760" height="656" viewBox="0 0 760 656" role="img" aria-label="HUD adoption (hud_*)"><title>HUD adoption (hud_*)</title><style>
  text{font-family:-apple-system,BlinkMacSystemFont,'Segoe UI',Roboto,Helvetica,Arial,sans-serif}
  .grid{stroke:#808080;stroke-opacity:.3;stroke-width:1}
  .axis{stroke:#808080;stroke-width:1}
  .lbl{fill:#808080;font-size:12px}
  .val{fill:#808080;font-size:12px;font-weight:600}
  .title{fill:#808080;font-size:14px;font-weight:700}
  .sub{fill:#808080;font-size:11px}
  .gap{fill:#808080;opacity:.12}
  .gaplbl{fill:#808080;font-size:10px;opacity:.85}
  .ico{fill:#808080}
  .t1{fill:#e3b341}
  .t2{fill:#d29922}
  .t3{fill:#b7860b}
  .t4{fill:#946f0f}
</style><text x="12" y="20" class="title">HUD adoption (hud_*)</text><text x="12" y="37" class="sub">% of MX Bikes installs reporting each flag</text><text x="200" y="60" class="lbl" text-anchor="end">Map</text><rect x="210" y="44" width="369" height="22" rx="3" fill="#3fb950" data-tip="Map: 79% (11,768 of 14,928)"/><text x="585" y="60" class="val">79% (11,768 of 14,928)</text><text x="200" y="90" class="lbl" text-anchor="end">Notices</text><rect x="210" y="74" width="357" height="22" rx="3" fill="#58a6ff" data-tip="Notices: 76% (11,386 of 14,928)"/><text x="573" y="90" class="val">76% (11,386 of 14,928)</text><text x="200" y="120" class="lbl" text-anchor="end">Standings</text><rect x="210" y="104" width="355" height="22" rx="3" fill="#d29922" data-tip="Standings: 76% (11,339 of 14,928)"/><text x="571" y="120" class="val">76% (11,339 of 14,928)</text><text x="200" y="150" class="lbl" text-anchor="end">Friends</text><rect x="210" y="134" width="310" height="22" rx="3" fill="#bc8cff" data-tip="Friends: 66% (9,916 of 14,928)"/><text x="526" y="150" class="val">66% (9,916 of 14,928)</text><text x="200" y="180" class="lbl" text-anchor="end">Timing</text><rect x="210" y="164" width="250" height="22" rx="3" fill="#f778ba" data-tip="Timing: 53% (7,974 of 14,928)"/><text x="466" y="180" class="val">53% (7,974 of 14,928)</text><text x="200" y="210" class="lbl" text-anchor="end">Lap Log</text><rect x="210" y="194" width="92" height="22" rx="3" fill="#39c5cf" data-tip="Lap Log: 20% (2,964 of 14,928)"/><text x="308" y="210" class="val">20% (2,964 of 14,928)</text><text x="200" y="240" class="lbl" text-anchor="end">Gap Bar</text><rect x="210" y="224" width="47" height="22" rx="3" fill="#ff7b72" data-tip="Gap Bar: 10% (1,529 of 14,928)"/><text x="263" y="240" class="val">10% (1,529 of 14,928)</text><text x="200" y="270" class="lbl" text-anchor="end">Pitboard</text><rect x="210" y="254" width="47" height="22" rx="3" fill="#a5d6ff" data-tip="Pitboard: 10% (1,528 of 14,928)"/><text x="263" y="270" class="val">10% (1,528 of 14,928)</text><text x="200" y="300" class="lbl" text-anchor="end">Radar</text><rect x="210" y="284" width="25" height="22" rx="3" fill="#7ee787" data-tip="Radar: 5% (805 of 14,928)"/><text x="241" y="300" class="val">5% (805 of 14,928)</text><text x="200" y="330" class="lbl" text-anchor="end">Ideal Lap</text><rect x="210" y="314" width="22" height="22" rx="3" fill="#ffa657" data-tip="Ideal Lap: 5% (731 of 14,928)"/><text x="238" y="330" class="val">5% (731 of 14,928)</text><text x="200" y="360" class="lbl" text-anchor="end">Session</text><rect x="210" y="344" width="12" height="22" rx="3" fill="#3fb950" data-tip="Session: 3% (388 of 14,928)"/><text x="228" y="360" class="val">3% (388 of 14,928)</text><text x="200" y="390" class="lbl" text-anchor="end">Performance</text><rect x="210" y="374" width="10" height="22" rx="3" fill="#58a6ff" data-tip="Performance: 2% (322 of 14,928)"/><text x="226" y="390" class="val">2% (322 of 14,928)</text><text x="200" y="420" class="lbl" text-anchor="end">Stats</text><rect x="210" y="404" width="7" height="22" rx="3" fill="#d29922" data-tip="Stats: 2% (229 of 14,928)"/><text x="223" y="420" class="val">2% (229 of 14,928)</text><text x="200" y="450" class="lbl" text-anchor="end">Telemetry</text><rect x="210" y="434" width="5" height="22" rx="3" fill="#bc8cff" data-tip="Telemetry: 1% (170 of 14,928)"/><text x="221" y="450" class="val">1% (170 of 14,928)</text><text x="200" y="480" class="lbl" text-anchor="end">Records</text><rect x="210" y="464" width="4" height="22" rx="3" fill="#f778ba" data-tip="Records: &lt;1% (140 of 14,928)"/><text x="220" y="480" class="val">&lt;1% (140 of 14,928)</text><text x="200" y="510" class="lbl" text-anchor="end">FMX</text><rect x="210" y="494" width="3" height="22" rx="3" fill="#39c5cf" data-tip="FMX: &lt;1% (107 of 14,928)"/><text x="219" y="510" class="val">&lt;1% (107 of 14,928)</text><text x="200" y="540" class="lbl" text-anchor="end">Lap Consistency</text><rect x="210" y="524" width="2" height="22" rx="3" fill="#ff7b72" data-tip="Lap Consistency: &lt;1% (8 of 1,351)"/><text x="218" y="540" class="val">&lt;1% (8 of 1,351)</text><text x="200" y="570" class="lbl" text-anchor="end">Event Log</text><rect x="210" y="554" width="1" height="22" rx="3" fill="#a5d6ff" data-tip="Event Log: &lt;1% (19 of 14,928)"/><text x="217" y="570" class="val">&lt;1% (19 of 14,928)</text><text x="200" y="600" class="lbl" text-anchor="end">Rumble</text><rect x="210" y="584" width="1" height="22" rx="3" fill="#7ee787" data-tip="Rumble: &lt;1% (10 of 14,928)"/><text x="217" y="600" class="val">&lt;1% (10 of 14,928)</text><text x="200" y="630" class="lbl" text-anchor="end">Session Charts</text><rect x="210" y="614" width="1" height="22" rx="3" fill="#ffa657" data-tip="Session Charts: &lt;1% (3 of 13,577)"/><text x="217" y="630" class="val">&lt;1% (3 of 13,577)</text></svg>