<svg xmlns="http://www.w3.org/2000/svg" width="760" height="356" viewBox="0 0 760 356" role="img" aria-label="Version migration" data-chart='{"bottom":310,"labels":["06-28","06-29","06-30","07-01","07-02","07-03","07-04","07-05","07-06","07-07","07-08","07-09","07-10","07-11","07-12","07-13","07-14","07-15","07-16","07-17","07-18","07-19","07-20","07-21","07-22","07-23","07-24","07-25","07-26","07-27","07-28","07-29","07-30","07-31","08-01","08-02","08-03","08-04","08-05","08-06","08-07","08-08","08-09","08-10","08-11","08-12","08-13","08-14","08-15","08-16","08-17","08-18","08-19","08-20","08-21","08-22","08-23","08-24","08-25","08-26","08-27","08-28","08-29","08-30","08-31","09-01","09-02","09-03","09-04","09-05","09-06","09-07","09-08","09-09","09-10","09-11","09-12","09-13","09-14","09-15","09-16","09-17","09-18","09-19","09-20","09-21","09-22","09-23","09-24","09-25","09-26","09-27","09-28","09-29","09-30","10-01","10-02","10-03","10-04","10-05","10-06","10-07","10-08","10-09"],"series":[{"color":"#3fb950","name":"1.28.0.48","values":["0%","0%","0%","0%","0%","0%","0%","0%",null,"0%","0%","0%","0%","0%","0%","0%","0%","0%","0%","0%","0%","0%","0%","0%","0%","0%","0%","0%",null,null,"0%","0%","5%","32%","39%","44%","47%","49%","52%","53%","52%","55%","56%","57%","59%","60%","60%","61%",null,null,null,null,null,null,null,null,null,null,null,null,"43%","39%","35%","32%","31%","30%","30%","29%","28%","28%","27%","26%","24%","24%","24%","25%","27%","26%","23%","24%","24%","24%","25%","24%","23%","21%","21%","20%","19%","21%","21%","21%","20%","18%","17%","16%","16%","16%","15%","13%","13%","13%","13%","12%"],"y":[310.0,310.0,310.0,310.0,310.0,310.0,310.0,310.0,null,310.0,310.0,310.0,310.0,310.0,310.0,310.0,310.0,310.0,310.0,310.0,310.0,310.0,310.0,310.0,310.0,310.0,310.0,310.0,null,null,310.0,310.0,300.6,245.8,231.2,221.1,215.6,212.4,206.0,203.1,205.2,200.5,198.8,196.9,191.5,190.7,190.2,188.8,null,null,null,null,null,null,null,null,null,null,null,null,223.4,232.1,241.0,245.7,247.4,250.7,251.0,251.8,253.2,253.8,256.2,258.4,261.1,261.2,261.2,259.9,256.3,258.4,263.2,262.1,262.1,262.2,260.3,262.1,263.5,268.2,268.7,269.8,272.0,267.9,268.2,267.2,270.6,274.2,275.7,277.0,278.9,278.5,280.3,283.2,283.3,284.8,284.5,285.5]},{"color":"#39c5cf","name":"1.26.0.0","values":["100%","100%","100%","100%","100%","100%","100%","100%",null,"100%","100%","99%","100%","100%","81%","53%","44%","37%","34%","32%","29%","27%","25%","23%","22%","21%","19%","20%",null,null,"18%","17%","17%","16%","16%","16%","14%","15%","14%","15%","16%","14%","14%","14%","12%","12%","13%","13%",null,null,null,null,null,null,null,null,null,null,null,null,"9%","9%","9%","8%","8%","8%","7%","7%","7%","7%","7%","6%","6%","6%","6%","5%","5%","5%","5%","5%","5%","5%","5%","4%","5%","5%","5%","5%","4%","4%","5%","4%","4%","4%","4%","5%","4%","5%","4%","4%","4%","4%","4%","4%"],"y":[110.0,110.0,110.0,110.2,110.7,110.7,110.7,110.6,null,110.9,110.9,111.3,111.0,110.7,148.9,204.1,222.3,235.7,241.2,245.4,252.1,256.1,260.6,263.7,266.5,268.7,271.7,270.8,null,null,274.7,275.2,276.5,277.3,278.8,278.0,281.0,280.0,281.9,279.8,278.9,281.4,282.2,283.0,285.2,285.2,284.7,284.6,null,null,null,null,null,null,null,null,null,null,null,null,292.3,293.0,292.0,293.0,293.9,294.4,296.2,296.3,296.5,296.6,296.2,297.8,297.2,297.6,298.6,299.3,299.6,299.3,300.1,299.8,300.2,300.4,299.5,301.0,300.2,299.8,300.2,300.7,301.4,301.6,300.8,302.0,301.4,302.5,301.2,300.7,301.2,300.8,302.4,301.4,301.6,302.1,301.9,301.9]},{"color":"#58a6ff","name":"1.30.3.57","values":["0%","0%","0%","0%","0%","0%","0%","0%",null,"0%","0%","0%","0%","0%","0%","0%","0%","0%","0%","0%","0%","0%","0%","0%","0%","0%","0%","0%",null,null,"0%","0%","0%","0%","0%","0%","0%","0%","0%","0%","0%","0%","0%","0%","0%","0%","0%","0%",null,null,null,null,null,null,null,null,null,null,null,null,"0%","0%","0%","0%","0%","0%","0%","0%","0%","0%","0%","0%","0%","0%","0%","0%","0%","11%","24%","28%","31%","31%","32%","34%","36%","39%","40%","41%","43%","43%","43%","45%","47%","49%","50%","51%","53%","45%","35%","32%","30%","29%","28%","27%"],"y":[310.0,310.0,310.0,310.0,310.0,310.0,310.0,310.0,null,310.0,310.0,310.0,310.0,310.0,310.0,310.0,310.0,310.0,310.0,310.0,310.0,310.0,310.0,310.0,310.0,310.0,310.0,310.0,null,null,310.0,310.0,310.0,310.0,310.0,310.0,310.0,310.0,310.0,310.0,310.0,310.0,310.0,310.0,310.0,310.0,310.0,310.0,null,null,null,null,null,null,null,null,null,null,null,null,310.0,310.0,310.0,310.0,310.0,310.0,310.0,310.0,310.0,310.0,310.0,310.0,310.0,310.0,310.0,310.0,310.0,289.0,262.4,254.6,248.9,247.2,245.1,241.0,237.1,231.8,230.7,227.9,224.3,224.3,224.5,219.3,215.8,211.2,210.6,208.4,204.8,219.7,239.0,246.2,251.0,252.3,254.8,255.7]},{"color":"#f778ba","name":"1.27.7.44","values":["0%","0%","0%","0%","0%","0%","0%","0%",null,"0%","0%","0%","0%","0%","0%","0%","0%","0%","0%","0%","25%","46%","52%","57%","60%","64%","64%","66%",null,null,"69%","69%","66%","40%","34%","30%","29%","27%","26%","23%","23%","22%","22%","22%","21%","21%","20%","19%",null,null,null,null,null,null,null,null,null,null,null,null,"11%","10%","12%","11%","11%","10%","10%","9%","9%","9%","8%","8%","7%","7%","7%","6%","6%","6%","6%","6%","6%","6%","5%","6%","6%","5%","6%","5%","6%","5%","5%","4%","5%","5%","5%","5%","5%","4%","5%","4%","4%","4%","5%","5%"],"y":[310.0,310.0,310.0,310.0,310.0,310.0,310.0,310.0,null,310.0,310.0,310.0,310.0,310.0,310.0,310.0,310.0,310.0,310.0,310.0,260.6,218.8,205.0,196.0,189.0,183.0,182.3,177.2,null,null,172.4,171.4,178.1,229.2,241.5,250.6,253.0,255.5,258.2,263.8,263.5,265.8,266.0,265.7,268.1,269.0,269.3,271.2,null,null,null,null,null,null,null,null,null,null,null,null,287.0,289.1,286.2,287.7,288.7,290.1,289.8,292.3,292.3,292.5,294.0,293.9,295.6,296.0,296.9,297.8,297.7,297.8,297.7,297.8,297.5,297.2,299.2,298.9,298.7,299.1,298.2,299.0,298.1,299.7,299.7,301.0,299.8,300.8,300.7,300.5,300.6,301.0,300.5,301.1,301.3,301.1,300.5,300.6]},{"color":"#bc8cff","name":"1.30.1.56","values":["0%","0%","0%","0%","0%","0%","0%","0%",null,"0%","0%","0%","0%","0%","0%","0%","0%","0%","0%","0%","0%","0%","0%","0%","0%","0%","0%","0%",null,null,"0%","0%","0%","0%","0%","0%","0%","0%","0%","0%","0%","0%","0%","0%","0%","0%","0%","0%",null,null,null,null,null,null,null,null,null,null,null,null,"0%","0%","0%","0%","0%","0%","0%","0%","0%","0%","11%","26%","33%","37%","40%","40%","41%","32%","24%","20%","17%","16%","16%","16%","14%","14%","14%","14%","14%","13%","13%","12%","12%","12%","11%","12%","11%","10%","9%","9%","9%","8%","8%","8%"],"y":[310.0,310.0,310.0,310.0,310.0,310.0,310.0,310.0,null,310.0,310.0,310.0,310.0,310.0,310.0,310.0,310.0,310.0,310.0,310.0,310.0,310.0,310.0,310.0,310.0,310.0,310.0,310.0,null,null,310.0,310.0,310.0,310.0,310.0,310.0,310.0,310.0,310.0,310.0,310.0,310.0,310.0,310.0,310.0,310.0,310.0,310.0,null,null,null,null,null,null,null,null,null,null,null,null,310.0,310.0,310.0,310.0,310.0,310.0,310.0,310.0,310.0,310.0,287.8,258.4,244.3,235.1,230.7,229.8,228.3,245.7,262.9,270.8,275.1,278.1,279.0,278.1,281.3,282.3,281.2,282.0,282.2,283.0,283.4,286.9,286.2,286.4,287.2,286.2,288.1,289.3,292.9,292.8,292.0,293.3,293.8,294.3]},{"color":"#ff7b72","name":"1.29.3.53","values":["0%","0%","0%","0%","0%","0%","0%","0%",null,"0%","0%","0%","0%","0%","0%","0%","0%","0%","0%","0%","0%","0%","0%","0%","0%","0%","0%","0%",null,null,"0%","0%","0%","0%","0%","0%","0%","0%","0%","0%","0%","0%","0%","0%","0%","0%","0%","0%",null,null,null,null,null,null,null,null,null,null,null,null,"0%","0%","10%","27%","33%","37%","35%","20%","15%","12%","11%","10%","8%","7%","7%","7%","6%","6%","5%","5%","5%","5%","4%","4%","4%","5%","4%","4%","4%","3%","4%","4%","4%","4%","3%","3%","3%","3%","3%","3%","3%","3%","3%","3%"],"y":[310.0,310.0,310.0,310.0,310.0,310.0,310.0,310.0,null,310.0,310.0,310.0,310.0,310.0,310.0,310.0,310.0,310.0,310.0,310.0,310.0,310.0,310.0,310.0,310.0,310.0,310.0,310.0,null,null,310.0,310.0,310.0,310.0,310.0,310.0,310.0,310.0,310.0,310.0,310.0,310.0,310.0,310.0,310.0,310.0,310.0,310.0,null,null,null,null,null,null,null,null,null,null,null,null,310.0,310.0,289.4,255.2,244.6,236.5,240.9,269.8,280.7,286.6,287.6,290.8,294.1,295.6,296.5,296.9,298.4,298.1,299.5,299.9,300.5,300.4,301.7,301.1,301.3,300.9,301.6,301.4,302.9,303.4,302.2,302.4,302.2,302.3,303.0,304.3,303.1,303.2,303.7,303.8,304.1,304.3,304.9,304.7]},{"color":"#a5d6ff","name":"1.29.5.54","values":["0%","0%","0%","0%","0%","0%","0%","0%",null,"0%","0%","0%","0%","0%","0%","0%","0%","0%","0%","0%","0%","0%","0%","0%","0%","0%","0%","0%",null,null,"0%","0%","0%","0%","0%","0%","0%","0%","0%","0%","0%","0%","0%","0%","0%","0%","0%","0%",null,null,null,null,null,null,null,null,null,null,null,null,"0%","0%","0%","0%","0%","0%","5%","23%","30%","34%","26%","15%","12%","10%","8%","9%","7%","7%","6%","5%","6%","6%","6%","5%","5%","5%","5%","5%","5%","4%","4%","4%","3%","4%","4%","4%","4%","4%","4%","3%","3%","3%","3%","3%"],"y":[310.0,310.0,310.0,310.0,310.0,310.0,310.0,310.0,null,310.0,310.0,310.0,310.0,310.0,310.0,310.0,310.0,310.0,310.0,310.0,310.0,310.0,310.0,310.0,310.0,310.0,310.0,310.0,null,null,310.0,310.0,310.0,310.0,310.0,310.0,310.0,310.0,310.0,310.0,310.0,310.0,310.0,310.0,310.0,310.0,310.0,310.0,null,null,null,null,null,null,null,null,null,null,null,null,310.0,310.0,310.0,310.0,310.0,310.0,300.1,263.3,249.3,241.2,258.6,280.7,285.9,290.7,293.2,293.0,295.1,296.1,297.9,299.0,298.9,298.0,298.3,299.3,299.7,300.1,300.7,301.0,300.5,301.8,301.2,301.5,303.1,302.2,302.2,302.1,302.7,302.0,302.9,303.9,304.3,303.8,303.8,304.1]},{"color":"#7ee787","name":"1.29.1.51","values":["0%","0%","0%","0%","0%","0%","0%","0%",null,"0%","0%","0%","0%","0%","0%","0%","0%","0%","0%","0%","0%","0%","0%","0%","0%","0%","0%","0%",null,null,"0%","0%","0%","0%","0%","0%","0%","0%","0%","0%","0%","0%","0%","0%","0%","0%","0%","0%",null,null,null,null,null,null,null,null,null,null,null,null,"32%","37%","30%","16%","14%","12%","10%","8%","7%","7%","6%","6%","5%","5%","5%","5%","4%","4%","4%","4%","4%","4%","4%","3%","3%","4%","3%","4%","3%","3%","3%","3%","2%","3%","3%","3%","3%","2%","2%","2%","2%","2%","2%","2%"],"y":[310.0,310.0,310.0,310.0,310.0,310.0,310.0,310.0,null,310.0,310.0,310.0,310.0,310.0,310.0,310.0,310.0,310.0,310.0,310.0,310.0,310.0,310.0,310.0,310.0,310.0,310.0,310.0,null,null,310.0,310.0,310.0,310.0,310.0,310.0,310.0,310.0,310.0,310.0,310.0,310.0,310.0,310.0,310.0,310.0,310.0,310.0,null,null,null,null,null,null,null,null,null,null,null,null,246.2,235.0,250.4,277.6,283.0,286.3,289.3,293.7,295.6,296.3,298.9,298.4,299.3,300.6,300.0,300.2,301.3,301.7,301.6,302.1,302.3,302.0,302.3,303.8,303.6,302.9,303.3,302.9,303.3,303.2,304.4,304.2,305.3,304.5,304.2,304.8,304.6,305.8,306.1,305.7,305.6,305.7,305.5,305.9]},{"color":"#3fb950","name":"1.27.5.43","values":["0%","0%","0%","0%","0%","0%","0%","0%",null,"0%","0%","0%","0%","0%","0%","0%","7%","37%","47%","53%","34%","17%","15%","12%","11%","9%","10%","8%",null,null,"8%","8%","7%","6%","5%","5%","5%","5%","4%","5%","5%","5%","5%","4%","4%","4%","4%","4%",null,null,null,null,null,null,null,null,null,null,null,null,"3%","2%","2%","2%","2%","2%","2%","2%","2%","2%","2%","2%","2%","2%","2%","2%","2%","2%","1%","2%","2%","1%","1%","2%","1%","1%","1%","1%","1%","1%","1%","1%","1%","1%","1%","1%","1%","1%","1%","1%","1%","1%","1%","1%"],"y":[310.0,310.0,310.0,310.0,310.0,310.0,310.0,310.0,null,310.0,310.0,310.0,310.0,310.0,310.0,310.0,296.2,235.1,215.9,204.9,242.7,275.3,280.2,285.4,288.6,291.2,289.9,293.4,null,null,294.7,294.8,295.0,297.4,299.1,299.3,300.3,300.3,301.3,300.6,300.3,300.5,300.9,301.5,302.2,302.4,302.6,302.6,null,null,null,null,null,null,null,null,null,null,null,null,304.8,305.3,305.0,305.0,305.4,305.3,305.6,305.3,305.4,306.2,306.1,305.7,306.5,306.9,306.7,306.7,306.5,306.9,307.0,306.7,307.0,307.0,307.5,306.9,307.4,307.1,307.4,307.5,307.7,307.5,307.4,307.4,307.4,307.7,307.2,307.9,308.0,308.1,307.7,307.8,308.1,307.9,307.9,307.9]},{"color":"#d29922","name":"1.31.0.60","values":["0%","0%","0%","0%","0%","0%","0%","0%",null,"0%","0%","0%","0%","0%","0%","0%","0%","0%","0%","0%","0%","0%","0%","0%","0%","0%","0%","0%",null,null,"0%","0%","0%","0%","0%","0%","0%","0%","0%","0%","0%","0%","0%","0%","0%","0%","0%","0%",null,null,null,null,null,null,null,null,null,null,null,null,"0%","0%","0%","0%","0%","0%","0%","0%","0%","0%","0%","0%","0%","0%","0%","0%","0%","0%","0%","0%","0%","0%","0%","0%","0%","0%","0%","0%","0%","0%","0%","0%","0%","0%","0%","0%","0%","8%","22%","27%","30%","32%","33%","34%"],"y":[310.0,310.0,310.0,310.0,310.0,310.0,310.0,310.0,null,310.0,310.0,310.0,310.0,310.0,310.0,310.0,310.0,310.0,310.0,310.0,310.0,310.0,310.0,310.0,310.0,310.0,310.0,310.0,null,null,310.0,310.0,310.0,310.0,310.0,310.0,310.0,310.0,310.0,310.0,310.0,310.0,310.0,310.0,310.0,310.0,310.0,310.0,null,null,null,null,null,null,null,null,null,null,null,null,310.0,310.0,310.0,310.0,310.0,310.0,310.0,310.0,310.0,310.0,310.0,310.0,310.0,310.0,310.0,310.0,310.0,310.0,310.0,310.0,310.0,310.0,310.0,310.0,310.0,310.0,310.0,310.0,310.0,310.0,310.0,310.0,310.0,310.0,310.0,310.0,310.0,293.6,266.1,255.6,250.4,246.8,244.0,241.5]},{"color":"#ffa657","name":"1.27.4.39","values":["0%","0%","0%","0%","0%","0%","0%","0%",null,"0%","0%","0%","0%","0%","19%","47%","49%","25%","18%","15%","13%","10%","8%","7%","7%","6%","7%","6%",null,null,"6%","6%","5%","5%","5%","4%","5%","4%","4%","4%","4%","4%","4%","4%","3%","4%","3%","4%",null,null,null,null,null,null,null,null,null,null,null,null,"2%","2%","2%","2%","1%","2%","1%","1%","1%","2%","1%","1%","1%","1%","1%","1%","1%","1%","1%","1%","1%","1%","1%","1%","1%","1%","1%","1%","1%","1%","1%","1%","1%","1%","1%","1%","1%","1%","1%","1%","1%","1%","1%","1%"],"y":[310.0,310.0,310.0,310.0,310.0,310.0,310.0,310.0,null,310.0,310.0,310.0,310.0,310.0,271.6,216.3,212.0,259.6,273.1,280.1,284.8,290.2,294.4,295.1,296.2,297.3,296.3,298.7,null,null,298.3,298.7,299.8,300.3,299.6,301.1,300.2,301.9,302.7,302.6,302.2,301.8,302.1,303.0,303.1,302.8,303.3,302.8,null,null,null,null,null,null,null,null,null,null,null,null,306.3,305.7,306.3,306.2,307.3,307.0,307.3,307.4,307.1,306.8,307.2,307.5,307.5,307.6,307.7,307.6,307.9,307.9,308.4,307.9,308.0,307.9,308.0,308.2,307.9,308.2,308.4,308.2,308.1,308.2,308.6,308.3,308.6,308.5,308.3,308.4,308.5,308.6,308.6,308.6,308.7,308.3,308.8,308.3]},{"color":"#57606a","name":"Other (28 builds)","values":["0%","0%","0%","0%","0%","0%","0%","0%",null,"0%","0%","1%","0%","0%","0%","0%","0%","0%","0%","0%","0%","0%","0%","0%","0%","0%","0%","0%",null,null,"0%","0%","0%","0%","0%","0%","0%","0%","0%","0%","0%","0%","0%","0%","0%","0%","0%","0%",null,null,null,null,null,null,null,null,null,null,null,null,"0%","0%","0%","0%","0%","0%","0%","0%","0%","0%","1%","1%","1%","1%","1%","1%","0%","0%","0%","0%","0%","0%","0%","0%","0%","0%","0%","0%","0%","0%","0%","0%","0%","0%","0%","0%","0%","0%","0%","0%","0%","0%","0%","0%"],"y":[310.0,310.0,310.0,309.8,309.3,309.3,309.3,309.4,null,309.1,309.1,308.7,309.0,309.3,309.5,309.5,309.5,309.6,309.7,309.6,309.7,309.7,309.8,309.8,309.8,309.8,309.8,310.0,null,null,309.9,309.9,309.9,309.9,309.8,309.9,309.9,309.9,309.9,310.0,310.0,310.0,310.0,310.0,309.9,309.9,309.9,310.0,null,null,null,null,null,null,null,null,null,null,null,null,310.0,309.8,309.8,309.5,309.7,309.7,309.8,309.9,309.9,309.9,307.4,308.3,308.6,308.6,308.4,308.8,309.1,309.1,309.4,309.3,309.6,309.5,309.2,309.4,309.4,309.6,309.5,309.5,309.5,309.6,309.7,309.7,309.6,309.7,309.6,309.7,309.6,309.5,309.7,309.8,309.7,309.6,309.6,309.5]}],"top":110,"type":"lines","x":[52.0,58.7,65.4,72.2,78.9,85.6,92.3,99.0,105.7,112.5,119.2,125.9,132.6,139.3,146.1,152.8,159.5,166.2,172.9,179.7,186.4,193.1,199.8,206.5,213.2,220.0,226.7,233.4,240.1,246.8,253.6,260.3,267.0,273.7,280.4,287.1,293.9,300.6,307.3,314.0,320.7,327.5,334.2,340.9,347.6,354.3,361.0,367.8,374.5,381.2,387.9,394.6,401.4,408.1,414.8,421.5,428.2,435.0,441.7,448.4,455.1,461.8,468.5,475.3,482.0,488.7,495.4,502.1,508.9,515.6,522.3,529.0,535.7,542.4,549.2,555.9,562.6,569.3,576.0,582.8,589.5,596.2,602.9,609.6,616.3,623.1,629.8,636.5,643.2,649.9,656.7,663.4,670.1,676.8,683.5,690.3,697.0,703.7,710.4,717.1,723.8,730.6,737.3,744.0]}'><title>Version migration</title><style>
  text{font-family:-apple-system,BlinkMacSystemFont,'Segoe UI',Roboto,Helvetica,Arial,sans-serif}
  .grid{stroke:#808080;stroke-opacity:.3;stroke-width:1}
  .axis{stroke:#808080;stroke-width:1}
  .lbl{fill:#808080;font-size:12px}
  .val{fill:#808080;font-size:12px;font-weight:600}
  .title{fill:#808080;font-size:14px;font-weight:700}
  .sub{fill:#808080;font-size:11px}
  .gap{fill:#808080;opacity:.12}
  .gaplbl{fill:#808080;font-size:10px;opacity:.85}
  .ico{fill:#808080}
  .t1{fill:#e3b341}
  .t2{fill:#d29922}
  .t3{fill:#b7860b}
  .t4{fill:#946f0f}
</style><text x="12" y="20" class="title">Version migration</text><text x="12" y="37" class="sub">share of each day&#x27;s active installs, by plugin version</text><rect x="102.4" y="110" width="6.7" height="200" class="gap"/><rect x="236.8" y="110" width="13.4" height="200" class="gap"/><rect x="371.1" y="110" width="80.6" height="200" class="gap"/><text x="411.4" y="122" class="gaplbl" text-anchor="middle">no data</text><line x1="52" y1="310.0" x2="744" y2="310.0" class="grid" stroke-dasharray="3 3"/><text x="46" y="314.0" class="sub" text-anchor="end">0%</text><line x1="52" y1="260.0" x2="744" y2="260.0" class="grid" stroke-dasharray="3 3"/><text x="46" y="264.0" class="sub" text-anchor="end">25%</text><line x1="52" y1="210.0" x2="744" y2="210.0" class="grid" stroke-dasharray="3 3"/><text x="46" y="214.0" class="sub" text-anchor="end">50%</text><line x1="52" y1="160.0" x2="744" y2="160.0" class="grid" stroke-dasharray="3 3"/><text x="46" y="164.0" class="sub" text-anchor="end">75%</text><line x1="52" y1="110.0" x2="744" y2="110.0" class="grid" stroke-dasharray="3 3"/><text x="46" y="114.0" class="sub" text-anchor="end">100%</text><text x="52.0" y="326" class="sub" text-anchor="middle">06-28</text><text x="139.3" y="326" class="sub" text-anchor="middle">07-11</text><text x="226.7" y="326" class="sub" text-anchor="middle">07-24</text><text x="314.0" y="326" class="sub" text-anchor="middle">08-06</text><text x="401.4" y="326" class="sub" text-anchor="middle">08-19</text><text x="488.7" y="326" class="sub" text-anchor="middle">09-01</text><text x="576.0" y="326" class="sub" text-anchor="middle">09-14</text><text x="663.4" y="326" class="sub" text-anchor="middle">09-27</text><text x="744.0" y="326" class="sub" text-anchor="middle">10-09</text><polyline points="52.0,310.0 58.7,310.0 65.4,310.0 72.2,310.0 78.9,310.0 85.6,310.0 92.3,310.0 99.0,310.0" fill="none" stroke="#3fb950" stroke-width="2" stroke-linejoin="round" stroke-linecap="round"/><polyline points="112.5,310.0 119.2,310.0 125.9,310.0 132.6,310.0 139.3,310.0 146.1,310.0 152.8,310.0 159.5,310.0 166.2,310.0 172.9,310.0 179.7,310.0 186.4,310.0 193.1,310.0 199.8,310.0 206.5,310.0 213.2,310.0 220.0,310.0 226.7,310.0 233.4,310.0" fill="none" stroke="#3fb950" stroke-width="2" stroke-linejoin="round" stroke-linecap="round"/><polyline points="253.6,310.0 260.3,310.0 267.0,300.6 273.7,245.8 280.4,231.2 287.1,221.1 293.9,215.6 300.6,212.4 307.3,206.0 314.0,203.1 320.7,205.2 327.5,200.5 334.2,198.8 340.9,196.9 347.6,191.5 354.3,190.7 361.0,190.2 367.8,188.8" fill="none" stroke="#3fb950" stroke-width="2" stroke-linejoin="round" stroke-linecap="round"/><polyline points="455.1,223.4 461.8,232.1 468.5,241.0 475.3,245.7 482.0,247.4 488.7,250.7 495.4,251.0 502.1,251.8 508.9,253.2 515.6,253.8 522.3,256.2 529.0,258.4 535.7,261.1 542.4,261.2 549.2,261.2 555.9,259.9 562.6,256.3 569.3,258.4 576.0,263.2 582.8,262.1 589.5,262.1 596.2,262.2 602.9,260.3 609.6,262.1 616.3,263.5 623.1,268.2 629.8,268.7 636.5,269.8 643.2,272.0 649.9,267.9 656.7,268.2 663.4,267.2 670.1,270.6 676.8,274.2 683.5,275.7 690.3,277.0 697.0,278.9 703.7,278.5 710.4,280.3 717.1,283.2 723.8,283.3 730.6,284.8 737.3,284.5 744.0,285.5" fill="none" stroke="#3fb950" stroke-width="2" stroke-linejoin="round" stroke-linecap="round"/><polyline points="52.0,110.0 58.7,110.0 65.4,110.0 72.2,110.2 78.9,110.7 85.6,110.7 92.3,110.7 99.0,110.6" fill="none" stroke="#39c5cf" stroke-width="2" stroke-linejoin="round" stroke-linecap="round"/><polyline points="112.5,110.9 119.2,110.9 125.9,111.3 132.6,111.0 139.3,110.7 146.1,148.9 152.8,204.1 159.5,222.3 166.2,235.7 172.9,241.2 179.7,245.4 186.4,252.1 193.1,256.1 199.8,260.6 206.5,263.7 213.2,266.5 220.0,268.7 226.7,271.7 233.4,270.8" fill="none" stroke="#39c5cf" stroke-width="2" stroke-linejoin="round" stroke-linecap="round"/><polyline points="253.6,274.7 260.3,275.2 267.0,276.5 273.7,277.3 280.4,278.8 287.1,278.0 293.9,281.0 300.6,280.0 307.3,281.9 314.0,279.8 320.7,278.9 327.5,281.4 334.2,282.2 340.9,283.0 347.6,285.2 354.3,285.2 361.0,284.7 367.8,284.6" fill="none" stroke="#39c5cf" stroke-width="2" stroke-linejoin="round" stroke-linecap="round"/><polyline points="455.1,292.3 461.8,293.0 468.5,292.0 475.3,293.0 482.0,293.9 488.7,294.4 495.4,296.2 502.1,296.3 508.9,296.5 515.6,296.6 522.3,296.2 529.0,297.8 535.7,297.2 542.4,297.6 549.2,298.6 555.9,299.3 562.6,299.6 569.3,299.3 576.0,300.1 582.8,299.8 589.5,300.2 596.2,300.4 602.9,299.5 609.6,301.0 616.3,300.2 623.1,299.8 629.8,300.2 636.5,300.7 643.2,301.4 649.9,301.6 656.7,300.8 663.4,302.0 670.1,301.4 676.8,302.5 683.5,301.2 690.3,300.7 697.0,301.2 703.7,300.8 710.4,302.4 717.1,301.4 723.8,301.6 730.6,302.1 737.3,301.9 744.0,301.9" fill="none" stroke="#39c5cf" stroke-width="2" stroke-linejoin="round" stroke-linecap="round"/><polyline points="52.0,310.0 58.7,310.0 65.4,310.0 72.2,310.0 78.9,310.0 85.6,310.0 92.3,310.0 99.0,310.0" fill="none" stroke="#58a6ff" stroke-width="2" stroke-linejoin="round" stroke-linecap="round"/><polyline points="112.5,310.0 119.2,310.0 125.9,310.0 132.6,310.0 139.3,310.0 146.1,310.0 152.8,310.0 159.5,310.0 166.2,310.0 172.9,310.0 179.7,310.0 186.4,310.0 193.1,310.0 199.8,310.0 206.5,310.0 213.2,310.0 220.0,310.0 226.7,310.0 233.4,310.0" fill="none" stroke="#58a6ff" stroke-width="2" stroke-linejoin="round" stroke-linecap="round"/><polyline points="253.6,310.0 260.3,310.0 267.0,310.0 273.7,310.0 280.4,310.0 287.1,310.0 293.9,310.0 300.6,310.0 307.3,310.0 314.0,310.0 320.7,310.0 327.5,310.0 334.2,310.0 340.9,310.0 347.6,310.0 354.3,310.0 361.0,310.0 367.8,310.0" fill="none" stroke="#58a6ff" stroke-width="2" stroke-linejoin="round" stroke-linecap="round"/><polyline points="455.1,310.0 461.8,310.0 468.5,310.0 475.3,310.0 482.0,310.0 488.7,310.0 495.4,310.0 502.1,310.0 508.9,310.0 515.6,310.0 522.3,310.0 529.0,310.0 535.7,310.0 542.4,310.0 549.2,310.0 555.9,310.0 562.6,310.0 569.3,289.0 576.0,262.4 582.8,254.6 589.5,248.9 596.2,247.2 602.9,245.1 609.6,241.0 616.3,237.1 623.1,231.8 629.8,230.7 636.5,227.9 643.2,224.3 649.9,224.3 656.7,224.5 663.4,219.3 670.1,215.8 676.8,211.2 683.5,210.6 690.3,208.4 697.0,204.8 703.7,219.7 710.4,239.0 717.1,246.2 723.8,251.0 730.6,252.3 737.3,254.8 744.0,255.7" fill="none" stroke="#58a6ff" stroke-width="2" stroke-linejoin="round" stroke-linecap="round"/><polyline points="52.0,310.0 58.7,310.0 65.4,310.0 72.2,310.0 78.9,310.0 85.6,310.0 92.3,310.0 99.0,310.0" fill="none" stroke="#f778ba" stroke-width="2" stroke-linejoin="round" stroke-linecap="round"/><polyline points="112.5,310.0 119.2,310.0 125.9,310.0 132.6,310.0 139.3,310.0 146.1,310.0 152.8,310.0 159.5,310.0 166.2,310.0 172.9,310.0 179.7,310.0 186.4,260.6 193.1,218.8 199.8,205.0 206.5,196.0 213.2,189.0 220.0,183.0 226.7,182.3 233.4,177.2" fill="none" stroke="#f778ba" stroke-width="2" stroke-linejoin="round" stroke-linecap="round"/><polyline points="253.6,172.4 260.3,171.4 267.0,178.1 273.7,229.2 280.4,241.5 287.1,250.6 293.9,253.0 300.6,255.5 307.3,258.2 314.0,263.8 320.7,263.5 327.5,265.8 334.2,266.0 340.9,265.7 347.6,268.1 354.3,269.0 361.0,269.3 367.8,271.2" fill="none" stroke="#f778ba" stroke-width="2" stroke-linejoin="round" stroke-linecap="round"/><polyline points="455.1,287.0 461.8,289.1 468.5,286.2 475.3,287.7 482.0,288.7 488.7,290.1 495.4,289.8 502.1,292.3 508.9,292.3 515.6,292.5 522.3,294.0 529.0,293.9 535.7,295.6 542.4,296.0 549.2,296.9 555.9,297.8 562.6,297.7 569.3,297.8 576.0,297.7 582.8,297.8 589.5,297.5 596.2,297.2 602.9,299.2 609.6,298.9 616.3,298.7 623.1,299.1 629.8,298.2 636.5,299.0 643.2,298.1 649.9,299.7 656.7,299.7 663.4,301.0 670.1,299.8 676.8,300.8 683.5,300.7 690.3,300.5 697.0,300.6 703.7,301.0 710.4,300.5 717.1,301.1 723.8,301.3 730.6,301.1 737.3,300.5 744.0,300.6" fill="none" stroke="#f778ba" stroke-width="2" stroke-linejoin="round" stroke-linecap="round"/><polyline points="52.0,310.0 58.7,310.0 65.4,310.0 72.2,310.0 78.9,310.0 85.6,310.0 92.3,310.0 99.0,310.0" fill="none" stroke="#bc8cff" stroke-width="2" stroke-linejoin="round" stroke-linecap="round"/><polyline points="112.5,310.0 119.2,310.0 125.9,310.0 132.6,310.0 139.3,310.0 146.1,310.0 152.8,310.0 159.5,310.0 166.2,310.0 172.9,310.0 179.7,310.0 186.4,310.0 193.1,310.0 199.8,310.0 206.5,310.0 213.2,310.0 220.0,310.0 226.7,310.0 233.4,310.0" fill="none" stroke="#bc8cff" stroke-width="2" stroke-linejoin="round" stroke-linecap="round"/><polyline points="253.6,310.0 260.3,310.0 267.0,310.0 273.7,310.0 280.4,310.0 287.1,310.0 293.9,310.0 300.6,310.0 307.3,310.0 314.0,310.0 320.7,310.0 327.5,310.0 334.2,310.0 340.9,310.0 347.6,310.0 354.3,310.0 361.0,310.0 367.8,310.0" fill="none" stroke="#bc8cff" stroke-width="2" stroke-linejoin="round" stroke-linecap="round"/><polyline points="455.1,310.0 461.8,310.0 468.5,310.0 475.3,310.0 482.0,310.0 488.7,310.0 495.4,310.0 502.1,310.0 508.9,310.0 515.6,310.0 522.3,287.8 529.0,258.4 535.7,244.3 542.4,235.1 549.2,230.7 555.9,229.8 562.6,228.3 569.3,245.7 576.0,262.9 582.8,270.8 589.5,275.1 596.2,278.1 602.9,279.0 609.6,278.1 616.3,281.3 623.1,282.3 629.8,281.2 636.5,282.0 643.2,282.2 649.9,283.0 656.7,283.4 663.4,286.9 670.1,286.2 676.8,286.4 683.5,287.2 690.3,286.2 697.0,288.1 703.7,289.3 710.4,292.9 717.1,292.8 723.8,292.0 730.6,293.3 737.3,293.8 744.0,294.3" fill="none" stroke="#bc8cff" stroke-width="2" stroke-linejoin="round" stroke-linecap="round"/><polyline points="52.0,310.0 58.7,310.0 65.4,310.0 72.2,310.0 78.9,310.0 85.6,310.0 92.3,310.0 99.0,310.0" fill="none" stroke="#ff7b72" stroke-width="2" stroke-linejoin="round" stroke-linecap="round"/><polyline points="112.5,310.0 119.2,310.0 125.9,310.0 132.6,310.0 139.3,310.0 146.1,310.0 152.8,310.0 159.5,310.0 166.2,310.0 172.9,310.0 179.7,310.0 186.4,310.0 193.1,310.0 199.8,310.0 206.5,310.0 213.2,310.0 220.0,310.0 226.7,310.0 233.4,310.0" fill="none" stroke="#ff7b72" stroke-width="2" stroke-linejoin="round" stroke-linecap="round"/><polyline points="253.6,310.0 260.3,310.0 267.0,310.0 273.7,310.0 280.4,310.0 287.1,310.0 293.9,310.0 300.6,310.0 307.3,310.0 314.0,310.0 320.7,310.0 327.5,310.0 334.2,310.0 340.9,310.0 347.6,310.0 354.3,310.0 361.0,310.0 367.8,310.0" fill="none" stroke="#ff7b72" stroke-width="2" stroke-linejoin="round" stroke-linecap="round"/><polyline points="455.1,310.0 461.8,310.0 468.5,289.4 475.3,255.2 482.0,244.6 488.7,236.5 495.4,240.9 502.1,269.8 508.9,280.7 515.6,286.6 522.3,287.6 529.0,290.8 535.7,294.1 542.4,295.6 549.2,296.5 555.9,296.9 562.6,298.4 569.3,298.1 576.0,299.5 582.8,299.9 589.5,300.5 596.2,300.4 602.9,301.7 609.6,301.1 616.3,301.3 623.1,300.9 629.8,301.6 636.5,301.4 643.2,302.9 649.9,303.4 656.7,302.2 663.4,302.4 670.1,302.2 676.8,302.3 683.5,303.0 690.3,304.3 697.0,303.1 703.7,303.2 710.4,303.7 717.1,303.8 723.8,304.1 730.6,304.3 737.3,304.9 744.0,304.7" fill="none" stroke="#ff7b72" stroke-width="2" stroke-linejoin="round" stroke-linecap="round"/><polyline points="52.0,310.0 58.7,310.0 65.4,310.0 72.2,310.0 78.9,310.0 85.6,310.0 92.3,310.0 99.0,310.0" fill="none" stroke="#a5d6ff" stroke-width="2" stroke-linejoin="round" stroke-linecap="round"/><polyline points="112.5,310.0 119.2,310.0 125.9,310.0 132.6,310.0 139.3,310.0 146.1,310.0 152.8,310.0 159.5,310.0 166.2,310.0 172.9,310.0 179.7,310.0 186.4,310.0 193.1,310.0 199.8,310.0 206.5,310.0 213.2,310.0 220.0,310.0 226.7,310.0 233.4,310.0" fill="none" stroke="#a5d6ff" stroke-width="2" stroke-linejoin="round" stroke-linecap="round"/><polyline points="253.6,310.0 260.3,310.0 267.0,310.0 273.7,310.0 280.4,310.0 287.1,310.0 293.9,310.0 300.6,310.0 307.3,310.0 314.0,310.0 320.7,310.0 327.5,310.0 334.2,310.0 340.9,310.0 347.6,310.0 354.3,310.0 361.0,310.0 367.8,310.0" fill="none" stroke="#a5d6ff" stroke-width="2" stroke-linejoin="round" stroke-linecap="round"/><polyline points="455.1,310.0 461.8,310.0 468.5,310.0 475.3,310.0 482.0,310.0 488.7,310.0 495.4,300.1 502.1,263.3 508.9,249.3 515.6,241.2 522.3,258.6 529.0,280.7 535.7,285.9 542.4,290.7 549.2,293.2 555.9,293.0 562.6,295.1 569.3,296.1 576.0,297.9 582.8,299.0 589.5,298.9 596.2,298.0 602.9,298.3 609.6,299.3 616.3,299.7 623.1,300.1 629.8,300.7 636.5,301.0 643.2,300.5 649.9,301.8 656.7,301.2 663.4,301.5 670.1,303.1 676.8,302.2 683.5,302.2 690.3,302.1 697.0,302.7 703.7,302.0 710.4,302.9 717.1,303.9 723.8,304.3 730.6,303.8 737.3,303.8 744.0,304.1" fill="none" stroke="#a5d6ff" stroke-width="2" stroke-linejoin="round" stroke-linecap="round"/><polyline points="52.0,310.0 58.7,310.0 65.4,310.0 72.2,310.0 78.9,310.0 85.6,310.0 92.3,310.0 99.0,310.0" fill="none" stroke="#7ee787" stroke-width="2" stroke-linejoin="round" stroke-linecap="round"/><polyline points="112.5,310.0 119.2,310.0 125.9,310.0 132.6,310.0 139.3,310.0 146.1,310.0 152.8,310.0 159.5,310.0 166.2,310.0 172.9,310.0 179.7,310.0 186.4,310.0 193.1,310.0 199.8,310.0 206.5,310.0 213.2,310.0 220.0,310.0 226.7,310.0 233.4,310.0" fill="none" stroke="#7ee787" stroke-width="2" stroke-linejoin="round" stroke-linecap="round"/><polyline points="253.6,310.0 260.3,310.0 267.0,310.0 273.7,310.0 280.4,310.0 287.1,310.0 293.9,310.0 300.6,310.0 307.3,310.0 314.0,310.0 320.7,310.0 327.5,310.0 334.2,310.0 340.9,310.0 347.6,310.0 354.3,310.0 361.0,310.0 367.8,310.0" fill="none" stroke="#7ee787" stroke-width="2" stroke-linejoin="round" stroke-linecap="round"/><polyline points="455.1,246.2 461.8,235.0 468.5,250.4 475.3,277.6 482.0,283.0 488.7,286.3 495.4,289.3 502.1,293.7 508.9,295.6 515.6,296.3 522.3,298.9 529.0,298.4 535.7,299.3 542.4,300.6 549.2,300.0 555.9,300.2 562.6,301.3 569.3,301.7 576.0,301.6 582.8,302.1 589.5,302.3 596.2,302.0 602.9,302.3 609.6,303.8 616.3,303.6 623.1,302.9 629.8,303.3 636.5,302.9 643.2,303.3 649.9,303.2 656.7,304.4 663.4,304.2 670.1,305.3 676.8,304.5 683.5,304.2 690.3,304.8 697.0,304.6 703.7,305.8 710.4,306.1 717.1,305.7 723.8,305.6 730.6,305.7 737.3,305.5 744.0,305.9" fill="none" stroke="#7ee787" stroke-width="2" stroke-linejoin="round" stroke-linecap="round"/><polyline points="52.0,310.0 58.7,310.0 65.4,310.0 72.2,310.0 78.9,310.0 85.6,310.0 92.3,310.0 99.0,310.0" fill="none" stroke="#3fb950" stroke-width="2" stroke-linejoin="round" stroke-linecap="round"/><polyline points="112.5,310.0 119.2,310.0 125.9,310.0 132.6,310.0 139.3,310.0 146.1,310.0 152.8,310.0 159.5,296.2 166.2,235.1 172.9,215.9 179.7,204.9 186.4,242.7 193.1,275.3 199.8,280.2 206.5,285.4 213.2,288.6 220.0,291.2 226.7,289.9 233.4,293.4" fill="none" stroke="#3fb950" stroke-width="2" stroke-linejoin="round" stroke-linecap="round"/><polyline points="253.6,294.7 260.3,294.8 267.0,295.0 273.7,297.4 280.4,299.1 287.1,299.3 293.9,300.3 300.6,300.3 307.3,301.3 314.0,300.6 320.7,300.3 327.5,300.5 334.2,300.9 340.9,301.5 347.6,302.2 354.3,302.4 361.0,302.6 367.8,302.6" fill="none" stroke="#3fb950" stroke-width="2" stroke-linejoin="round" stroke-linecap="round"/><polyline points="455.1,304.8 461.8,305.3 468.5,305.0 475.3,305.0 482.0,305.4 488.7,305.3 495.4,305.6 502.1,305.3 508.9,305.4 515.6,306.2 522.3,306.1 529.0,305.7 535.7,306.5 542.4,306.9 549.2,306.7 555.9,306.7 562.6,306.5 569.3,306.9 576.0,307.0 582.8,306.7 589.5,307.0 596.2,307.0 602.9,307.5 609.6,306.9 616.3,307.4 623.1,307.1 629.8,307.4 636.5,307.5 643.2,307.7 649.9,307.5 656.7,307.4 663.4,307.4 670.1,307.4 676.8,307.7 683.5,307.2 690.3,307.9 697.0,308.0 703.7,308.1 710.4,307.7 717.1,307.8 723.8,308.1 730.6,307.9 737.3,307.9 744.0,307.9" fill="none" stroke="#3fb950" stroke-width="2" stroke-linejoin="round" stroke-linecap="round"/><polyline points="52.0,310.0 58.7,310.0 65.4,310.0 72.2,310.0 78.9,310.0 85.6,310.0 92.3,310.0 99.0,310.0" fill="none" stroke="#d29922" stroke-width="2" stroke-linejoin="round" stroke-linecap="round"/><polyline points="112.5,310.0 119.2,310.0 125.9,310.0 132.6,310.0 139.3,310.0 146.1,310.0 152.8,310.0 159.5,310.0 166.2,310.0 172.9,310.0 179.7,310.0 186.4,310.0 193.1,310.0 199.8,310.0 206.5,310.0 213.2,310.0 220.0,310.0 226.7,310.0 233.4,310.0" fill="none" stroke="#d29922" stroke-width="2" stroke-linejoin="round" stroke-linecap="round"/><polyline points="253.6,310.0 260.3,310.0 267.0,310.0 273.7,310.0 280.4,310.0 287.1,310.0 293.9,310.0 300.6,310.0 307.3,310.0 314.0,310.0 320.7,310.0 327.5,310.0 334.2,310.0 340.9,310.0 347.6,310.0 354.3,310.0 361.0,310.0 367.8,310.0" fill="none" stroke="#d29922" stroke-width="2" stroke-linejoin="round" stroke-linecap="round"/><polyline points="455.1,310.0 461.8,310.0 468.5,310.0 475.3,310.0 482.0,310.0 488.7,310.0 495.4,310.0 502.1,310.0 508.9,310.0 515.6,310.0 522.3,310.0 529.0,310.0 535.7,310.0 542.4,310.0 549.2,310.0 555.9,310.0 562.6,310.0 569.3,310.0 576.0,310.0 582.8,310.0 589.5,310.0 596.2,310.0 602.9,310.0 609.6,310.0 616.3,310.0 623.1,310.0 629.8,310.0 636.5,310.0 643.2,310.0 649.9,310.0 656.7,310.0 663.4,310.0 670.1,310.0 676.8,310.0 683.5,310.0 690.3,310.0 697.0,310.0 703.7,293.6 710.4,266.1 717.1,255.6 723.8,250.4 730.6,246.8 737.3,244.0 744.0,241.5" fill="none" stroke="#d29922" stroke-width="2" stroke-linejoin="round" stroke-linecap="round"/><polyline points="52.0,310.0 58.7,310.0 65.4,310.0 72.2,310.0 78.9,310.0 85.6,310.0 92.3,310.0 99.0,310.0" fill="none" stroke="#ffa657" stroke-width="2" stroke-linejoin="round" stroke-linecap="round"/><polyline points="112.5,310.0 119.2,310.0 125.9,310.0 132.6,310.0 139.3,310.0 146.1,271.6 152.8,216.3 159.5,212.0 166.2,259.6 172.9,273.1 179.7,280.1 186.4,284.8 193.1,290.2 199.8,294.4 206.5,295.1 213.2,296.2 220.0,297.3 226.7,296.3 233.4,298.7" fill="none" stroke="#ffa657" stroke-width="2" stroke-linejoin="round" stroke-linecap="round"/><polyline points="253.6,298.3 260.3,298.7 267.0,299.8 273.7,300.3 280.4,299.6 287.1,301.1 293.9,300.2 300.6,301.9 307.3,302.7 314.0,302.6 320.7,302.2 327.5,301.8 334.2,302.1 340.9,303.0 347.6,303.1 354.3,302.8 361.0,303.3 367.8,302.8" fill="none" stroke="#ffa657" stroke-width="2" stroke-linejoin="round" stroke-linecap="round"/><polyline points="455.1,306.3 461.8,305.7 468.5,306.3 475.3,306.2 482.0,307.3 488.7,307.0 495.4,307.3 502.1,307.4 508.9,307.1 515.6,306.8 522.3,307.2 529.0,307.5 535.7,307.5 542.4,307.6 549.2,307.7 555.9,307.6 562.6,307.9 569.3,307.9 576.0,308.4 582.8,307.9 589.5,308.0 596.2,307.9 602.9,308.0 609.6,308.2 616.3,307.9 623.1,308.2 629.8,308.4 636.5,308.2 643.2,308.1 649.9,308.2 656.7,308.6 663.4,308.3 670.1,308.6 676.8,308.5 683.5,308.3 690.3,308.4 697.0,308.5 703.7,308.6 710.4,308.6 717.1,308.6 723.8,308.7 730.6,308.3 737.3,308.8 744.0,308.3" fill="none" stroke="#ffa657" stroke-width="2" stroke-linejoin="round" stroke-linecap="round"/><polyline points="52.0,310.0 58.7,310.0 65.4,310.0 72.2,309.8 78.9,309.3 85.6,309.3 92.3,309.3 99.0,309.4" fill="none" stroke="#57606a" stroke-width="2" stroke-linejoin="round" stroke-linecap="round"/><polyline points="112.5,309.1 119.2,309.1 125.9,308.7 132.6,309.0 139.3,309.3 146.1,309.5 152.8,309.5 159.5,309.5 166.2,309.6 172.9,309.7 179.7,309.6 186.4,309.7 193.1,309.7 199.8,309.8 206.5,309.8 213.2,309.8 220.0,309.8 226.7,309.8 233.4,310.0" fill="none" stroke="#57606a" stroke-width="2" stroke-linejoin="round" stroke-linecap="round"/><polyline points="253.6,309.9 260.3,309.9 267.0,309.9 273.7,309.9 280.4,309.8 287.1,309.9 293.9,309.9 300.6,309.9 307.3,309.9 314.0,310.0 320.7,310.0 327.5,310.0 334.2,310.0 340.9,310.0 347.6,309.9 354.3,309.9 361.0,309.9 367.8,310.0" fill="none" stroke="#57606a" stroke-width="2" stroke-linejoin="round" stroke-linecap="round"/><polyline points="455.1,310.0 461.8,309.8 468.5,309.8 475.3,309.5 482.0,309.7 488.7,309.7 495.4,309.8 502.1,309.9 508.9,309.9 515.6,309.9 522.3,307.4 529.0,308.3 535.7,308.6 542.4,308.6 549.2,308.4 555.9,308.8 562.6,309.1 569.3,309.1 576.0,309.4 582.8,309.3 589.5,309.6 596.2,309.5 602.9,309.2 609.6,309.4 616.3,309.4 623.1,309.6 629.8,309.5 636.5,309.5 643.2,309.5 649.9,309.6 656.7,309.7 663.4,309.7 670.1,309.6 676.8,309.7 683.5,309.6 690.3,309.7 697.0,309.6 703.7,309.5 710.4,309.7 717.1,309.8 723.8,309.7 730.6,309.6 737.3,309.6 744.0,309.5" fill="none" stroke="#57606a" stroke-width="2" stroke-linejoin="round" stroke-linecap="round"/><circle cx="52.0" cy="110.0" r="3" fill="#39c5cf"/><text x="52.0" y="120.0" text-anchor="start" style="fill:#39c5cf;font-size:10px">100%</text><circle cx="159.5" cy="212.0" r="3" fill="#ffa657"/><text x="159.5" y="205.0" text-anchor="middle" style="fill:#ffa657;font-size:10px">49%</text><circle cx="179.7" cy="204.9" r="3" fill="#3fb950"/><text x="179.7" y="194.0" text-anchor="middle" style="fill:#3fb950;font-size:10px">53%</text><circle cx="260.3" cy="171.4" r="3" fill="#f778ba"/><text x="260.3" y="164.4" text-anchor="middle" style="fill:#f778ba;font-size:10px">69%</text><circle cx="367.8" cy="188.8" r="3" fill="#3fb950"/><text x="367.8" y="181.8" text-anchor="middle" style="fill:#3fb950;font-size:10px">61%</text><circle cx="461.8" cy="235.0" r="3" fill="#7ee787"/><text x="461.8" y="228.0" text-anchor="middle" style="fill:#7ee787;font-size:10px">37%</text><circle cx="488.7" cy="236.5" r="3" fill="#ff7b72"/><text x="488.7" y="229.5" text-anchor="middle" style="fill:#ff7b72;font-size:10px">37%</text><circle cx="515.6" cy="241.2" r="3" fill="#a5d6ff"/><text x="515.6" y="234.2" text-anchor="middle" style="fill:#a5d6ff;font-size:10px">34%</text><circle cx="522.3" cy="307.4" r="3" fill="#57606a"/><text x="522.3" y="300.4" text-anchor="middle" style="fill:#57606a;font-size:10px">1%</text><circle cx="562.6" cy="228.3" r="3" fill="#bc8cff"/><text x="562.6" y="221.3" text-anchor="middle" style="fill:#bc8cff;font-size:10px">41%</text><circle cx="697.0" cy="204.8" r="3" fill="#58a6ff"/><text x="697.0" y="197.8" text-anchor="middle" style="fill:#58a6ff;font-size:10px">53%</text><rect x="52" y="44" width="11" height="11" rx="2" fill="#3fb950"/><text x="68" y="54" class="lbl">1.28.0.48 · 12%</text><rect x="214" y="44" width="11" height="11" rx="2" fill="#39c5cf"/><text x="230" y="54" class="lbl">1.26.0.0 · 4%</text><rect x="360" y="44" width="11" height="11" rx="2" fill="#58a6ff"/><text x="376" y="54" class="lbl">1.30.3.57 · 27%</text><rect x="522" y="44" width="11" height="11" rx="2" fill="#f778ba"/><text x="538" y="54" class="lbl">1.27.7.44 · 5%</text><rect x="52" y="62" width="11" height="11" rx="2" fill="#bc8cff"/><text x="68" y="72" class="lbl">1.30.1.56 · 8%</text><rect x="206" y="62" width="11" height="11" rx="2" fill="#ff7b72"/><text x="222" y="72" class="lbl">1.29.3.53 · 3%</text><rect x="360" y="62" width="11" height="11" rx="2" fill="#a5d6ff"/><text x="376" y="72" class="lbl">1.29.5.54 · 3%</text><rect x="514" y="62" width="11" height="11" rx="2" fill="#7ee787"/><text x="530" y="72" class="lbl">1.29.1.51 · 2%</text><rect x="52" y="80" width="11" height="11" rx="2" fill="#3fb950"/><text x="68" y="90" class="lbl">1.27.5.43 · 1%</text><rect x="206" y="80" width="11" height="11" rx="2" fill="#d29922"/><text x="222" y="90" class="lbl">1.31.0.60 · 34%</text><rect x="368" y="80" width="11" height="11" rx="2" fill="#ffa657"/><text x="384" y="90" class="lbl">1.27.4.39 · 1%</text><rect x="522" y="80" width="11" height="11" rx="2" fill="#57606a"/><text x="538" y="90" class="lbl">Other (28 builds) · 0%</text></svg>