<svg xmlns="http://www.w3.org/2000/svg" width="760" height="320" viewBox="0 0 760 320" role="img"><style>
  text{font-family:-apple-system,BlinkMacSystemFont,'Segoe UI',Roboto,Helvetica,Arial,sans-serif}
  .grid{stroke:#d0d7de;stroke-width:1}
  .axis{stroke:#57606a;stroke-width:1}
  .lbl{fill:#57606a;font-size:12px}
  .val{fill:#24292f;font-size:12px;font-weight:600}
  .title{fill:#24292f;font-size:14px;font-weight:700}
  .sub{fill:#57606a;font-size:11px}
  @media (prefers-color-scheme: dark){
    .grid{stroke:#30363d}
    .axis{stroke:#8b949e}
    .lbl{fill:#8b949e}
    .val{fill:#e6edf3}
    .title{fill:#e6edf3}
    .sub{fill:#8b949e}
  }
</style><text x="12" y="20" class="title">Daily active installs</text><text x="12" y="37" class="sub">distinct installs launching per day</text><line x1="52" y1="274.0" x2="744" y2="274.0" class="grid" stroke-dasharray="3 3"/><text x="46" y="278.0" class="sub" text-anchor="end">0</text><line x1="52" y1="224.0" x2="744" y2="224.0" class="grid" stroke-dasharray="3 3"/><text x="46" y="228.0" class="sub" text-anchor="end">500</text><line x1="52" y1="174.0" x2="744" y2="174.0" class="grid" stroke-dasharray="3 3"/><text x="46" y="178.0" class="sub" text-anchor="end">1,000</text><line x1="52" y1="124.0" x2="744" y2="124.0" class="grid" stroke-dasharray="3 3"/><text x="46" y="128.0" class="sub" text-anchor="end">1,500</text><line x1="52" y1="74.0" x2="744" y2="74.0" class="grid" stroke-dasharray="3 3"/><text x="46" y="78.0" class="sub" text-anchor="end">2,000</text><text x="52.0" y="290" class="sub" text-anchor="middle">06-27</text><text x="117.9" y="290" class="sub" text-anchor="middle">06-29</text><text x="183.8" y="290" class="sub" text-anchor="middle">07-01</text><text x="249.7" y="290" class="sub" text-anchor="middle">07-03</text><text x="315.6" y="290" class="sub" text-anchor="middle">07-05</text><text x="381.5" y="290" class="sub" text-anchor="middle">07-07</text><text x="447.4" y="290" class="sub" text-anchor="middle">07-09</text><text x="513.3" y="290" class="sub" text-anchor="middle">07-11</text><text x="579.2" y="290" class="sub" text-anchor="middle">07-13</text><text x="645.1" y="290" class="sub" text-anchor="middle">07-15</text><text x="711.0" y="290" class="sub" text-anchor="middle">07-17</text><text x="744.0" y="290" class="sub" text-anchor="middle">07-18</text><polyline points="52.0,274.0 85.0,240.6 117.9,213.1 150.9,200.1 183.8,190.6 216.8,188.0 249.7,188.3 282.7,189.4 315.6,179.8 348.6,176.4 381.5,163.6 414.5,157.2 447.4,150.5 480.4,148.5 513.3,156.3 546.3,151.4 579.2,143.5 612.2,140.3 645.1,135.4 678.1,132.9 711.0,126.8 744.0,189.4" fill="none" stroke="#58a6ff" stroke-width="2" stroke-linejoin="round" stroke-linecap="round"/><rect x="52" y="44" width="11" height="11" rx="2" fill="#58a6ff"/><text x="68" y="54" class="lbl">Active installs</text></svg>