<svg xmlns="http://www.w3.org/2000/svg" width="760" height="506" viewBox="0 0 760 506" role="img"><style>
  text{font-family:-apple-system,BlinkMacSystemFont,'Segoe UI',Roboto,Helvetica,Arial,sans-serif}
  .grid{stroke:#d0d7de;stroke-width:1}
  .axis{stroke:#57606a;stroke-width:1}
  .lbl{fill:#57606a;font-size:12px}
  .val{fill:#24292f;font-size:12px;font-weight:600}
  .title{fill:#24292f;font-size:14px;font-weight:700}
  .sub{fill:#57606a;font-size:11px}
  @media (prefers-color-scheme: dark){
    .grid{stroke:#30363d}
    .axis{stroke:#8b949e}
    .lbl{fill:#8b949e}
    .val{fill:#e6edf3}
    .title{fill:#e6edf3}
    .sub{fill:#8b949e}
  }
</style><text x="12" y="20" class="title">Installs by country (top 15)</text><text x="12" y="37" class="sub">3,507 of 3,507 installs report a country</text><text x="200" y="60" class="lbl" text-anchor="end">United States</text><rect x="210" y="44" width="454" height="22" rx="3" fill="#3fb950"/><text x="670" y="60" class="val">1,608 (46%)</text><text x="200" y="90" class="lbl" text-anchor="end">United Kingdom</text><rect x="210" y="74" width="105" height="22" rx="3" fill="#58a6ff"/><text x="321" y="90" class="val">373 (11%)</text><text x="200" y="120" class="lbl" text-anchor="end">Australia</text><rect x="210" y="104" width="58" height="22" rx="3" fill="#d29922"/><text x="274" y="120" class="val">206 (6%)</text><text x="200" y="150" class="lbl" text-anchor="end">Brazil</text><rect x="210" y="134" width="47" height="22" rx="3" fill="#bc8cff"/><text x="263" y="150" class="val">167 (5%)</text><text x="200" y="180" class="lbl" text-anchor="end">France</text><rect x="210" y="164" width="38" height="22" rx="3" fill="#f778ba"/><text x="254" y="180" class="val">138 (4%)</text><text x="200" y="210" class="lbl" text-anchor="end">Germany</text><rect x="210" y="194" width="29" height="22" rx="3" fill="#39c5cf"/><text x="245" y="210" class="val">105 (3%)</text><text x="200" y="240" class="lbl" text-anchor="end">Canada</text><rect x="210" y="224" width="29" height="22" rx="3" fill="#ff7b72"/><text x="245" y="240" class="val">104 (3%)</text><text x="200" y="270" class="lbl" text-anchor="end">Sweden</text><rect x="210" y="254" width="27" height="22" rx="3" fill="#a5d6ff"/><text x="243" y="270" class="val">98 (3%)</text><text x="200" y="300" class="lbl" text-anchor="end">Netherlands</text><rect x="210" y="284" width="16" height="22" rx="3" fill="#7ee787"/><text x="232" y="300" class="val">57 (2%)</text><text x="200" y="330" class="lbl" text-anchor="end">Norway</text><rect x="210" y="314" width="12" height="22" rx="3" fill="#ffa657"/><text x="228" y="330" class="val">45 (1%)</text><text x="200" y="360" class="lbl" text-anchor="end">Spain</text><rect x="210" y="344" width="12" height="22" rx="3" fill="#3fb950"/><text x="228" y="360" class="val">43 (1%)</text><text x="200" y="390" class="lbl" text-anchor="end">Poland</text><rect x="210" y="374" width="10" height="22" rx="3" fill="#58a6ff"/><text x="226" y="390" class="val">37 (1%)</text><text x="200" y="420" class="lbl" text-anchor="end">Belgium</text><rect x="210" y="404" width="10" height="22" rx="3" fill="#d29922"/><text x="226" y="420" class="val">36 (1%)</text><text x="200" y="450" class="lbl" text-anchor="end">South Africa</text><rect x="210" y="434" width="9" height="22" rx="3" fill="#bc8cff"/><text x="225" y="450" class="val">35 (&lt;1%)</text><text x="200" y="480" class="lbl" text-anchor="end">Italy</text><rect x="210" y="464" width="9" height="22" rx="3" fill="#f778ba"/><text x="225" y="480" class="val">34 (&lt;1%)</text></svg>