<svg xmlns="http://www.w3.org/2000/svg" width="760" height="656" viewBox="0 0 760 656" role="img"><style>
  text{font-family:-apple-system,BlinkMacSystemFont,'Segoe UI',Roboto,Helvetica,Arial,sans-serif}
  .grid{stroke:#d0d7de;stroke-width:1}
  .axis{stroke:#57606a;stroke-width:1}
  .lbl{fill:#57606a;font-size:12px}
  .val{fill:#24292f;font-size:12px;font-weight:600}
  .title{fill:#24292f;font-size:14px;font-weight:700}
  .sub{fill:#57606a;font-size:11px}
  @media (prefers-color-scheme: dark){
    .grid{stroke:#30363d}
    .axis{stroke:#8b949e}
    .lbl{fill:#8b949e}
    .val{fill:#e6edf3}
    .title{fill:#e6edf3}
    .sub{fill:#8b949e}
  }
</style><text x="12" y="20" class="title">HUD adoption (hud_*)</text><text x="12" y="37" class="sub">% of 3,450 MX Bikes installs</text><text x="200" y="60" class="lbl" text-anchor="end">Standings</text><rect x="210" y="44" width="454" height="22" rx="3" fill="#3fb950"/><text x="670" y="60" class="val">79% (2,729)</text><text x="200" y="90" class="lbl" text-anchor="end">Map</text><rect x="210" y="74" width="436" height="22" rx="3" fill="#58a6ff"/><text x="652" y="90" class="val">76% (2,623)</text><text x="200" y="120" class="lbl" text-anchor="end">Notices</text><rect x="210" y="104" width="427" height="22" rx="3" fill="#d29922"/><text x="643" y="120" class="val">75% (2,571)</text><text x="200" y="150" class="lbl" text-anchor="end">Friends</text><rect x="210" y="134" width="363" height="22" rx="3" fill="#bc8cff"/><text x="579" y="150" class="val">63% (2,188)</text><text x="200" y="180" class="lbl" text-anchor="end">Lap Log</text><rect x="210" y="164" width="264" height="22" rx="3" fill="#f778ba"/><text x="480" y="180" class="val">46% (1,588)</text><text x="200" y="210" class="lbl" text-anchor="end">Timing</text><rect x="210" y="194" width="126" height="22" rx="3" fill="#39c5cf"/><text x="342" y="210" class="val">22% (763)</text><text x="200" y="240" class="lbl" text-anchor="end">Pitboard</text><rect x="210" y="224" width="91" height="22" rx="3" fill="#ff7b72"/><text x="307" y="240" class="val">16% (552)</text><text x="200" y="270" class="lbl" text-anchor="end">Gap Bar</text><rect x="210" y="254" width="87" height="22" rx="3" fill="#a5d6ff"/><text x="303" y="270" class="val">15% (523)</text><text x="200" y="300" class="lbl" text-anchor="end">Radar</text><rect x="210" y="284" width="46" height="22" rx="3" fill="#7ee787"/><text x="262" y="300" class="val">8% (279)</text><text x="200" y="330" class="lbl" text-anchor="end">Ideal Lap</text><rect x="210" y="314" width="43" height="22" rx="3" fill="#ffa657"/><text x="259" y="330" class="val">8% (263)</text><text x="200" y="360" class="lbl" text-anchor="end">Session</text><rect x="210" y="344" width="18" height="22" rx="3" fill="#3fb950"/><text x="234" y="360" class="val">3% (112)</text><text x="200" y="390" class="lbl" text-anchor="end">Performance</text><rect x="210" y="374" width="17" height="22" rx="3" fill="#58a6ff"/><text x="233" y="390" class="val">3% (104)</text><text x="200" y="420" class="lbl" text-anchor="end">Stats</text><rect x="210" y="404" width="15" height="22" rx="3" fill="#d29922"/><text x="231" y="420" class="val">3% (94)</text><text x="200" y="450" class="lbl" text-anchor="end">Telemetry</text><rect x="210" y="434" width="8" height="22" rx="3" fill="#bc8cff"/><text x="224" y="450" class="val">1% (50)</text><text x="200" y="480" class="lbl" text-anchor="end">Lap Consistency</text><rect x="210" y="464" width="8" height="22" rx="3" fill="#f778ba"/><text x="224" y="480" class="val">1% (26)</text><text x="200" y="510" class="lbl" text-anchor="end">Records</text><rect x="210" y="494" width="5" height="22" rx="3" fill="#39c5cf"/><text x="221" y="510" class="val">&lt;1% (32)</text><text x="200" y="540" class="lbl" text-anchor="end">FMX</text><rect x="210" y="524" width="5" height="22" rx="3" fill="#ff7b72"/><text x="221" y="540" class="val">&lt;1% (31)</text><text x="200" y="570" class="lbl" text-anchor="end">Event Log</text><rect x="210" y="554" width="1" height="22" rx="3" fill="#a5d6ff"/><text x="217" y="570" class="val">&lt;1% (11)</text><text x="200" y="600" class="lbl" text-anchor="end">Session Charts</text><rect x="210" y="584" width="1" height="22" rx="3" fill="#7ee787"/><text x="217" y="600" class="val">&lt;1% (2 of 1,637)</text><text x="200" y="630" class="lbl" text-anchor="end">Rumble</text><rect x="210" y="614" width="1" height="22" rx="3" fill="#ffa657"/><text x="217" y="630" class="val">&lt;1% (3)</text></svg>