<svg xmlns="http://www.w3.org/2000/svg" width="760" height="656" viewBox="0 0 760 656" role="img"><style>
  text{font-family:-apple-system,BlinkMacSystemFont,'Segoe UI',Roboto,Helvetica,Arial,sans-serif}
  .grid{stroke:#d0d7de;stroke-width:1}
  .axis{stroke:#57606a;stroke-width:1}
  .lbl{fill:#57606a;font-size:12px}
  .val{fill:#24292f;font-size:12px;font-weight:600}
  .title{fill:#24292f;font-size:14px;font-weight:700}
  .sub{fill:#57606a;font-size:11px}
  .gap{fill:#57606a;opacity:.09}
  .gaplbl{fill:#57606a;font-size:10px;opacity:.85}
  @media (prefers-color-scheme: dark){
    .grid{stroke:#30363d}
    .axis{stroke:#8b949e}
    .lbl{fill:#8b949e}
    .val{fill:#e6edf3}
    .title{fill:#e6edf3}
    .sub{fill:#8b949e}
    .gap{fill:#8b949e;opacity:.13}
    .gaplbl{fill:#8b949e}
  }
</style><text x="12" y="20" class="title">Widget adoption (widget_*)</text><text x="12" y="37" class="sub">% of 11,936 MX Bikes installs</text><text x="200" y="60" class="lbl" text-anchor="end">Pointer</text><rect x="210" y="44" width="454" height="22" rx="3" fill="#3fb950"/><text x="670" y="60" class="val">100% (11,936)</text><text x="200" y="90" class="lbl" text-anchor="end">Spotter</text><rect x="210" y="74" width="453" height="22" rx="3" fill="#58a6ff"/><text x="669" y="90" class="val">&gt;99% (3,071 of 3,072)</text><text x="200" y="120" class="lbl" text-anchor="end">Settings Button</text><rect x="210" y="104" width="419" height="22" rx="3" fill="#d29922"/><text x="635" y="120" class="val">92% (11,035)</text><text x="200" y="150" class="lbl" text-anchor="end">Speed</text><rect x="210" y="134" width="409" height="22" rx="3" fill="#bc8cff"/><text x="625" y="150" class="val">90% (10,775)</text><text x="200" y="180" class="lbl" text-anchor="end">Lap</text><rect x="210" y="164" width="408" height="22" rx="3" fill="#f778ba"/><text x="624" y="180" class="val">90% (10,736)</text><text x="200" y="210" class="lbl" text-anchor="end">Position</text><rect x="210" y="194" width="404" height="22" rx="3" fill="#39c5cf"/><text x="620" y="210" class="val">89% (10,635)</text><text x="200" y="240" class="lbl" text-anchor="end">Gear</text><rect x="210" y="224" width="402" height="22" rx="3" fill="#ff7b72"/><text x="618" y="240" class="val">89% (10,593)</text><text x="200" y="270" class="lbl" text-anchor="end">Time</text><rect x="210" y="254" width="113" height="22" rx="3" fill="#a5d6ff"/><text x="329" y="270" class="val">25% (2,976)</text><text x="200" y="300" class="lbl" text-anchor="end">Fuel</text><rect x="210" y="284" width="74" height="22" rx="3" fill="#7ee787"/><text x="290" y="300" class="val">16% (1,957)</text><text x="200" y="330" class="lbl" text-anchor="end">Version</text><rect x="210" y="314" width="54" height="22" rx="3" fill="#ffa657"/><text x="270" y="330" class="val">12% (1,421)</text><text x="200" y="360" class="lbl" text-anchor="end">Gamepad</text><rect x="210" y="344" width="46" height="22" rx="3" fill="#3fb950"/><text x="262" y="360" class="val">10% (1,224)</text><text x="200" y="390" class="lbl" text-anchor="end">Clock</text><rect x="210" y="374" width="19" height="22" rx="3" fill="#58a6ff"/><text x="235" y="390" class="val">4% (522)</text><text x="200" y="420" class="lbl" text-anchor="end">Bars</text><rect x="210" y="404" width="13" height="22" rx="3" fill="#d29922"/><text x="229" y="420" class="val">3% (350)</text><text x="200" y="450" class="lbl" text-anchor="end">Tacho</text><rect x="210" y="434" width="9" height="22" rx="3" fill="#bc8cff"/><text x="225" y="450" class="val">2% (252)</text><text x="200" y="480" class="lbl" text-anchor="end">Crash</text><rect x="210" y="464" width="4" height="22" rx="3" fill="#f778ba"/><text x="220" y="480" class="val">1% (33 of 3,072)</text><text x="200" y="510" class="lbl" text-anchor="end">Lean</text><rect x="210" y="494" width="4" height="22" rx="3" fill="#39c5cf"/><text x="220" y="510" class="val">&lt;1% (116)</text><text x="200" y="540" class="lbl" text-anchor="end">Speedo</text><rect x="210" y="524" width="2" height="22" rx="3" fill="#ff7b72"/><text x="218" y="540" class="val">&lt;1% (70)</text><text x="200" y="570" class="lbl" text-anchor="end">G-Force</text><rect x="210" y="554" width="1" height="22" rx="3" fill="#a5d6ff"/><text x="217" y="570" class="val">&lt;1% (43)</text><text x="200" y="600" class="lbl" text-anchor="end">Compass</text><rect x="210" y="584" width="1" height="22" rx="3" fill="#7ee787"/><text x="217" y="600" class="val">&lt;1% (5)</text><text x="200" y="630" class="lbl" text-anchor="end">Benchmark</text><rect x="210" y="614" width="1" height="22" rx="3" fill="#ffa657"/><text x="217" y="630" class="val">0% (0)</text></svg>