<svg xmlns="http://www.w3.org/2000/svg" width="1254" height="1254" viewBox="0 0 1254 1254">
  <path fill="#808080" fill-rule="evenodd" d="M 230 320 L 206 345 L 181 377 L 152 428 L 142 451 L 129 491 L 117 563 L 118 623 L 123 658 L 136 714 L 146 745 L 163 786 L 191 837 L 202 849 L 215 858 L 230 864 L 867 1057 L 893 1057 L 911 1050 L 961 1008 L 965 1002 L 967 990 L 948 914 L 989 814 L 989 805 L 983 796 L 902 724 L 893 721 L 885 721 L 870 728 L 806 777 L 782 786 L 764 787 L 744 783 L 553 701 L 530 684 L 523 675 L 514 653 L 512 593 L 516 565 L 521 553 L 534 537 L 552 526 L 565 522 L 895 474 L 901 468 L 904 460 L 903 450 L 897 434 L 899 431 L 1123 371 L 1134 363 L 1137 352 L 1131 343 L 1120 338 L 968 307 L 746 257 L 627 222 L 577 213 L 540 210 L 493 211 L 460 215 L 415 224 L 366 239 L 301 269 L 262 294 Z M 612 810 L 615 807 L 625 809 L 828 893 L 838 901 L 847 914 L 863 961 L 864 971 L 862 973 L 850 971 L 687 910 L 672 896 L 615 818 Z"/>
</svg>
