<svg xmlns="http://www.w3.org/2000/svg" width="1254" height="1254" viewBox="0 0 1254 1254">
  <path fill="#808080" fill-rule="evenodd" d="M 584 533 L 578 553 L 578 570 L 604 660 L 622 691 L 638 707 L 659 721 L 686 733 L 991 817 L 1027 822 L 1062 822 L 1090 818 L 1098 815 L 1103 810 L 1104 792 L 1098 732 L 1082 619 L 1069 552 L 1066 545 L 1059 539 L 659 496 L 636 496 L 620 500 L 600 512 Z M 245 325 L 214 363 L 189 402 L 172 436 L 159 469 L 147 511 L 140 552 L 137 586 L 137 635 L 147 703 L 157 739 L 170 774 L 207 847 L 232 888 L 247 905 L 263 916 L 280 922 L 535 977 L 974 1080 L 990 1082 L 1019 1081 L 1037 1075 L 1052 1064 L 1064 1048 L 1074 1026 L 1104 938 L 1116 886 L 1116 869 L 1110 859 L 1100 858 L 1081 862 L 1046 865 L 1015 864 L 981 859 L 669 773 L 625 755 L 602 739 L 584 721 L 569 699 L 560 679 L 532 587 L 528 565 L 528 545 L 532 525 L 542 503 L 551 490 L 567 474 L 582 464 L 617 452 L 644 451 L 1018 491 L 1053 492 L 1057 486 L 1054 467 L 1041 429 L 1026 396 L 1004 358 L 987 334 L 968 311 L 941 284 L 904 254 L 870 232 L 829 211 L 799 199 L 747 184 L 695 175 L 660 172 L 608 172 L 557 177 L 501 187 L 455 199 L 399 219 L 350 243 L 316 264 L 276 295 Z"/>
</svg>
